<svg width="80" height="80" viewBox="0 0 80 80" fill="none" xmlns="http://www.w3.org/2000/svg">
<path d="M25.8064 12.9032H23.2258V15.4838H25.8064V12.9032Z" fill="url(#paint0_linear)"/>
<path d="M37.4193 72.2581H29.6774V74.8387H37.4193V72.2581Z" fill="url(#paint1_linear)"/>
<path d="M80 33.5484V0H38.7097V5.16129H41.2903V2.58065H77.4193V30.9677H61.9355V28.3871H72.2581V27.0968C72.2581 24.2452 70.3432 21.7058 67.6 20.9213L63.2258 19.6723V19.3277C64.8335 18.1161 65.8064 16.2103 65.8064 14.1935V11.88C65.8064 8.41161 63.2245 5.47226 59.929 5.18581C58.1174 5.02968 56.3239 5.63742 54.9961 6.85548C53.6658 8.07613 52.9032 9.81032 52.9032 11.6129V14.1935C52.9032 16.2103 53.8761 18.1161 55.4839 19.3277V19.6723L51.1097 20.9213C48.3665 21.7058 46.4516 24.2452 46.4516 27.0968V28.3871H54.1935V30.9677H41.2903V7.74194H19.3548C15.7974 7.74194 12.9032 10.6361 12.9032 14.1935V28.3871H11.6129C9.66968 28.3871 7.74581 29.0284 6.19484 30.1935L3.44129 32.2581H0V55.4839H3.44129L6.19355 57.5484C7.74581 58.7135 9.66968 59.3548 11.6129 59.3548H12.9032V73.5484C12.9032 77.1058 15.7974 80 19.3548 80H47.7419C49.8413 80 51.6916 78.9768 52.8697 77.4193H72.2581V72.7781C72.2581 71.9019 72.5587 71.0439 73.1071 70.36L76.0052 66.7355C76.9161 65.5961 77.4193 64.1652 77.4193 62.7058V45.1613C77.4193 43.0271 75.6826 41.2903 73.5484 41.2903C73.0387 41.2903 72.5548 41.3948 72.1084 41.5742C71.6632 39.929 70.1716 38.7097 68.3871 38.7097C67.8774 38.7097 67.3935 38.8142 66.9471 38.9935C66.5019 37.3484 65.0103 36.129 63.2258 36.129C62.7716 36.129 62.3406 36.2219 61.9355 36.3665V33.5484H80ZM49.2581 25.8064C49.6684 24.6645 50.609 23.7484 51.8181 23.4039L58.0645 21.6181V17.8968L57.4232 17.5239C56.209 16.8168 55.4839 15.5716 55.4839 14.1935V11.6129C55.4839 10.5303 55.9406 9.49032 56.7406 8.75871C57.5484 8.01806 58.6064 7.66323 59.7058 7.75742C61.68 7.92903 63.2258 9.73935 63.2258 11.88V14.1935C63.2258 15.5716 62.5006 16.8168 61.2865 17.5239L60.6452 17.8968V21.6181L66.8916 23.4039C68.1006 23.7497 69.0413 24.6658 69.4516 25.8064H60.929C60.2206 25.0206 59.2039 24.5161 58.0645 24.5161C56.9252 24.5161 55.9097 25.0206 55.2 25.8064H49.2581ZM49.0323 33.5484H54.1935V57.52C53.951 57.271 53.7781 56.9497 53.711 56.5845L51.4 43.871H49.0323V33.5484ZM46.4516 33.5484V44.1716C44.9419 44.7781 43.871 46.2516 43.871 47.9755V48.8C43.871 49.0258 43.8903 49.2516 43.9264 49.4735L46.0039 61.9355H20.6452V36.129H21.9355C24.0697 36.129 25.8064 34.3923 25.8064 32.2581C25.8064 30.1239 24.0697 28.3871 21.9355 28.3871H20.6452V25.8064H38.7097V33.5484H46.4516ZM15.4839 37.8413C15.8555 37.3123 16.1845 36.7484 16.4245 36.129H18.0645V64.5161H46.5523C46.7923 65.1845 47.129 65.8168 47.5729 66.3716L48.1523 67.0968H15.4839V37.8413ZM19.3548 10.3226H38.7097V12.9032H28.3871V15.4839H38.7097V18.0645H15.4839V14.1935C15.4839 12.0594 17.2206 10.3226 19.3548 10.3226ZM15.4839 20.6452H38.7097V23.2258H18.0645V28.3871H15.4839V20.6452ZM11.6129 56.7742C10.2258 56.7742 8.85032 56.3161 7.74194 55.4839L4.30065 52.9032H2.58065V34.8387H4.30065L7.74323 32.2581C8.85032 31.4258 10.2258 30.9677 11.6129 30.9677H21.9355C22.6477 30.9677 23.2258 31.5458 23.2258 32.2581C23.2258 32.9703 22.6477 33.5484 21.9355 33.5484H14.4774L14.2335 34.5265C13.6168 36.9897 11.4129 38.7097 8.87355 38.7097H7.74194V41.2903H8.87355C10.3329 41.2903 11.7058 40.8839 12.9032 40.1948V56.7742H11.6129ZM47.7419 77.4193H19.3548C17.2206 77.4193 15.4839 75.6826 15.4839 73.5484V69.6774H50.2168L50.7626 70.36C51.3123 71.0452 51.6129 71.9032 51.6129 72.7781V73.5484C51.6129 75.6826 49.8761 77.4193 47.7419 77.4193ZM63.2258 38.7097C63.9381 38.7097 64.5161 39.2877 64.5161 40V42.5806V58.0645H67.0968V42.5806C67.0968 41.8684 67.6748 41.2903 68.3871 41.2903C69.0993 41.2903 69.6774 41.8684 69.6774 42.5806V45.1613V58.0645H72.2581V45.1613C72.2581 44.449 72.8361 43.871 73.5484 43.871C74.2606 43.871 74.8387 44.449 74.8387 45.1613V62.7058C74.8387 63.5819 74.5381 64.44 73.9897 65.1239L71.0916 68.7484C70.1806 69.8877 69.6774 71.3187 69.6774 72.7781V74.8387H54.1935V72.7781C54.1935 71.3187 53.6903 69.8877 52.7794 68.7471L49.5871 64.7587C49.1768 64.2465 48.9019 63.6297 48.7935 62.9781L46.471 49.0503C46.4581 48.9677 46.4516 48.8839 46.4516 48.7987V47.9742C46.4516 47.1342 47.1342 46.4516 47.9755 46.4516H49.2452L51.1716 57.0464C51.551 59.1316 53.3639 60.6452 55.4839 60.6452H56.7742V28.3871C56.7742 27.6748 57.3523 27.0968 58.0645 27.0968C58.7768 27.0968 59.3548 27.6748 59.3548 28.3871V40V52.9032V58.0645H61.9355V52.9032V40C61.9355 39.2877 62.5135 38.7097 63.2258 38.7097Z" fill="url(#paint2_linear)"/>
<path d="M42.5806 56.7742H23.2258V59.3548H42.5806V56.7742Z" fill="url(#paint3_linear)"/>
<path d="M41.2903 51.6129H23.2258V54.1936H41.2903V51.6129Z" fill="url(#paint4_linear)"/>
<path d="M36.129 28.3871H28.3871V30.9677H36.129V28.3871Z" fill="url(#paint5_linear)"/>
<path d="M36.129 33.5483H28.3871V36.129H36.129V33.5483Z" fill="url(#paint6_linear)"/>
<path d="M30.9677 38.7097H23.2258V41.2904H30.9677V38.7097Z" fill="url(#paint7_linear)"/>
<path d="M41.2903 46.4517H33.5484V49.0323H41.2903V46.4517Z" fill="url(#paint8_linear)"/>
<defs>
<linearGradient id="paint0_linear" x1="24.5161" y1="12.9032" x2="24.5161" y2="15.4838" gradientUnits="userSpaceOnUse">
<stop stop-color="#0195FA"/>
<stop offset="1" stop-color="#0168BC"/>
</linearGradient>
<linearGradient id="paint1_linear" x1="33.5484" y1="72.2581" x2="33.5484" y2="74.8387" gradientUnits="userSpaceOnUse">
<stop stop-color="#0195FA"/>
<stop offset="1" stop-color="#0168BC"/>
</linearGradient>
<linearGradient id="paint2_linear" x1="40" y1="0" x2="40" y2="80" gradientUnits="userSpaceOnUse">
<stop stop-color="#0195FA"/>
<stop offset="1" stop-color="#0168BC"/>
</linearGradient>
<linearGradient id="paint3_linear" x1="32.9032" y1="56.7742" x2="32.9032" y2="59.3548" gradientUnits="userSpaceOnUse">
<stop stop-color="#0195FA"/>
<stop offset="1" stop-color="#0168BC"/>
</linearGradient>
<linearGradient id="paint4_linear" x1="32.2581" y1="51.6129" x2="32.2581" y2="54.1936" gradientUnits="userSpaceOnUse">
<stop stop-color="#0195FA"/>
<stop offset="1" stop-color="#0168BC"/>
</linearGradient>
<linearGradient id="paint5_linear" x1="32.2581" y1="28.3871" x2="32.2581" y2="30.9677" gradientUnits="userSpaceOnUse">
<stop stop-color="#0195FA"/>
<stop offset="1" stop-color="#0168BC"/>
</linearGradient>
<linearGradient id="paint6_linear" x1="32.2581" y1="33.5483" x2="32.2581" y2="36.129" gradientUnits="userSpaceOnUse">
<stop stop-color="#0195FA"/>
<stop offset="1" stop-color="#0168BC"/>
</linearGradient>
<linearGradient id="paint7_linear" x1="27.0968" y1="38.7097" x2="27.0968" y2="41.2904" gradientUnits="userSpaceOnUse">
<stop stop-color="#0195FA"/>
<stop offset="1" stop-color="#0168BC"/>
</linearGradient>
<linearGradient id="paint8_linear" x1="37.4194" y1="46.4517" x2="37.4194" y2="49.0323" gradientUnits="userSpaceOnUse">
<stop stop-color="#0195FA"/>
<stop offset="1" stop-color="#0168BC"/>
</linearGradient>
</defs>
</svg>
