<svg width="80" height="80" viewBox="0 0 80 80" fill="none" xmlns="http://www.w3.org/2000/svg">
<path d="M39.9998 24.0502C32.6786 24.0502 26.7222 30.0064 26.7222 37.3278C26.7222 44.6492 32.6786 50.6055 39.9998 50.6055C47.3211 50.6055 53.2775 44.6492 53.2775 37.3278C53.2775 30.0064 47.3211 24.0502 39.9998 24.0502ZM39.9998 48.1002C34.06 48.1002 29.2273 43.2677 29.2273 37.3277C29.2273 31.3877 34.0598 26.5552 39.9998 26.5552C45.9398 26.5552 50.7723 31.3877 50.7723 37.3277C50.7723 43.2677 45.9397 48.1002 39.9998 48.1002Z" fill="url(#paint0_linear)"/>
<path d="M40.0002 36.0751C39.2174 36.0751 38.5805 35.4383 38.5805 34.6555C38.5805 33.8726 39.2174 33.2358 40.0002 33.2358H42.6724C43.3641 33.2358 43.925 32.6751 43.925 31.9831C43.925 31.2912 43.3643 30.7304 42.6724 30.7304H41.2527V29.3108C41.2527 28.6189 40.6919 28.0581 40 28.0581C39.3082 28.0581 38.7474 28.6187 38.7474 29.3108V30.9365C37.1958 31.4606 36.0752 32.929 36.0752 34.6553C36.0752 36.8195 37.8358 38.5801 40 38.5801C40.7829 38.5801 41.4197 39.217 41.4197 39.9998C41.4197 40.7826 40.7829 41.4195 40 41.4195H37.3279C36.6361 41.4195 36.0752 41.9801 36.0752 42.6722C36.0752 43.3642 36.636 43.9248 37.3279 43.9248H38.7475V45.3445C38.7475 46.0364 39.3083 46.5972 40.0002 46.5972C40.6921 46.5972 41.2529 46.0365 41.2529 45.3445V43.7187C42.8044 43.1947 43.925 41.7262 43.925 40C43.925 37.8358 42.1644 36.0751 40.0002 36.0751Z" fill="url(#paint1_linear)"/>
<path d="M79.5045 29.6491L74.6556 25.9708V15.9499C74.6556 15.258 74.0948 14.6972 73.403 14.6972H59.7952L42.3722 1.47971C40.9756 0.420176 39.0247 0.420176 37.6281 1.47971L20.205 14.6974H6.59719C5.90547 14.6974 5.34453 15.258 5.34453 15.95V25.971L0.495469 29.6491C0.186875 29.8838 0 30.2594 0 30.6472V78.7474C0 79.4394 0.560781 80 1.25266 80H54.6973C55.3891 80 55.95 79.4394 55.95 78.7474C55.95 78.0555 55.3892 77.4947 54.6973 77.4947H2.50516V32.8989L74.3541 77.4949H61.3778C60.6861 77.4949 60.1252 78.0555 60.1252 78.7475C60.1252 79.4394 60.6859 80.0002 61.3778 80.0002H78.7438C79.2303 80.0002 79.6805 79.7113 79.8845 79.2708C79.9595 79.1082 80.0002 78.9271 80.0002 78.7475V30.6472C80 30.2594 79.813 29.8838 79.5045 29.6491ZM5.34453 31.7127L3.46141 30.5438L5.34453 29.1153V31.7127ZM74.6555 29.1153L76.5386 30.5438L74.6555 31.7127V29.1153ZM10.6889 27.975V35.03L7.84969 33.2677V17.2025H33.3194C34.0111 17.2025 34.572 16.6419 34.572 15.9499C34.572 15.2578 34.0112 14.6972 33.3194 14.6972H24.35L39.142 3.4758C39.6472 3.09252 40.3527 3.09252 40.858 3.4758L55.65 14.6972H40C39.3083 14.6972 38.7473 15.2578 38.7473 15.9499C38.7473 16.6419 39.3081 17.2025 40 17.2025H72.1503V33.2677L69.3111 35.03V27.975C69.3111 27.2831 68.7503 26.7224 68.0584 26.7224C65.0655 26.7224 62.6305 24.2875 62.6305 21.2944C62.6305 20.6025 62.0697 20.0417 61.3778 20.0417H18.6222C17.9305 20.0417 17.3695 20.6024 17.3695 21.2944C17.3695 24.2875 14.9345 26.7224 11.9416 26.7224C11.2498 26.7224 10.6889 27.283 10.6889 27.975ZM13.1942 36.585V29.1286C16.5673 28.5913 19.2386 25.92 19.7761 22.5469H60.2242C60.7616 25.92 63.4327 28.5913 66.8061 29.1286V36.585L40.0002 53.2231L13.1942 36.585ZM77.4948 76.4958L42.3752 54.6974L77.4948 32.8989V76.4958Z" fill="url(#paint2_linear)"/>
<path d="M58.7057 2.67219H57.2861V1.25266C57.2861 0.560781 56.7253 0 56.0334 0C55.3415 0 54.7807 0.560625 54.7807 1.25266V2.67234H53.3611C52.6693 2.67234 52.1084 3.23297 52.1084 3.925C52.1084 4.61687 52.6692 5.17766 53.3611 5.17766H54.7807V6.59734C54.7807 7.28922 55.3415 7.85 56.0334 7.85C56.7253 7.85 57.2861 7.28937 57.2861 6.59734V5.17766H58.7057C59.3975 5.17766 59.9584 4.61703 59.9584 3.925C59.9584 3.23297 59.3975 2.67219 58.7057 2.67219Z" fill="url(#paint3_linear)"/>
<path d="M15.9499 6.68064H14.5302V5.26096C14.5302 4.56908 13.9694 4.0083 13.2775 4.0083C12.5857 4.0083 12.0249 4.56893 12.0249 5.26096V6.68064H10.6052C9.91348 6.68064 9.35254 7.24127 9.35254 7.9333C9.35254 8.62518 9.91332 9.18596 10.6052 9.18596H12.0249V10.6056C12.0249 11.2975 12.5857 11.8583 13.2775 11.8583C13.9694 11.8583 14.5302 11.2977 14.5302 10.6056V9.18596H15.9499C16.6416 9.18596 17.2025 8.62533 17.2025 7.9333C17.2025 7.24127 16.6418 6.68064 15.9499 6.68064Z" fill="url(#paint4_linear)"/>
<path d="M69.3947 6.68064H67.975V5.26096C67.975 4.56908 67.4142 4.0083 66.7224 4.0083C66.0306 4.0083 65.4697 4.56893 65.4697 5.26096V6.68064H64.05C63.3583 6.68064 62.7974 7.24127 62.7974 7.9333C62.7974 8.62518 63.3581 9.18596 64.05 9.18596H65.4697V10.6056C65.4697 11.2975 66.0305 11.8583 66.7224 11.8583C67.4141 11.8583 67.975 11.2977 67.975 10.6056V9.18596H69.3947C70.0864 9.18596 70.6474 8.62533 70.6474 7.9333C70.6474 7.24127 70.0866 6.68064 69.3947 6.68064Z" fill="url(#paint5_linear)"/>
<path d="M26.6388 2.67219H25.2192V1.25266C25.2192 0.560781 24.6584 0 23.9665 0C23.2746 0 22.7138 0.560625 22.7138 1.25266V2.67234H21.2942C20.6024 2.67234 20.0415 3.23297 20.0415 3.925C20.0415 4.61687 20.6023 5.17766 21.2942 5.17766H22.7138V6.59734C22.7138 7.28922 23.2746 7.85 23.9665 7.85C24.6584 7.85 25.2192 7.28937 25.2192 6.59734V5.17766H26.6388C27.3306 5.17766 27.8915 4.61703 27.8915 3.925C27.8913 3.23297 27.3306 2.67219 26.6388 2.67219Z" fill="url(#paint6_linear)"/>
<defs>
<linearGradient id="paint0_linear" x1="39.9998" y1="24.0502" x2="39.9998" y2="50.6055" gradientUnits="userSpaceOnUse">
<stop stop-color="#0195FA"/>
<stop offset="1" stop-color="#0168BC"/>
</linearGradient>
<linearGradient id="paint1_linear" x1="40.0001" y1="28.0581" x2="40.0001" y2="46.5972" gradientUnits="userSpaceOnUse">
<stop stop-color="#0195FA"/>
<stop offset="1" stop-color="#0168BC"/>
</linearGradient>
<linearGradient id="paint2_linear" x1="40.0001" y1="0.685059" x2="40.0001" y2="80.0002" gradientUnits="userSpaceOnUse">
<stop stop-color="#0195FA"/>
<stop offset="1" stop-color="#0168BC"/>
</linearGradient>
<linearGradient id="paint3_linear" x1="56.0334" y1="0" x2="56.0334" y2="7.85" gradientUnits="userSpaceOnUse">
<stop stop-color="#0195FA"/>
<stop offset="1" stop-color="#0168BC"/>
</linearGradient>
<linearGradient id="paint4_linear" x1="13.2775" y1="4.0083" x2="13.2775" y2="11.8583" gradientUnits="userSpaceOnUse">
<stop stop-color="#0195FA"/>
<stop offset="1" stop-color="#0168BC"/>
</linearGradient>
<linearGradient id="paint5_linear" x1="66.7224" y1="4.0083" x2="66.7224" y2="11.8583" gradientUnits="userSpaceOnUse">
<stop stop-color="#0195FA"/>
<stop offset="1" stop-color="#0168BC"/>
</linearGradient>
<linearGradient id="paint6_linear" x1="23.9665" y1="0" x2="23.9665" y2="7.85" gradientUnits="userSpaceOnUse">
<stop stop-color="#0195FA"/>
<stop offset="1" stop-color="#0168BC"/>
</linearGradient>
</defs>
</svg>
