<svg width="80" height="80" viewBox="0 0 80 80" fill="none" xmlns="http://www.w3.org/2000/svg">
<path d="M73.4352 4C73.1499 4 72.3268 4 72.1852 4H24.9973C24.1344 4 23.4348 4.62973 23.4348 5.40628C23.4348 6.18283 24.1344 6.81257 24.9973 6.81257H67.8483C67.2305 7.71301 66.873 8.7725 66.873 9.90625V28.326C66.873 29.1026 67.5726 29.7323 68.4355 29.7323C69.2985 29.7323 69.998 29.1026 69.998 28.326V23.9687H78.4352C79.2982 23.9687 79.9977 23.3389 79.9977 22.5624V9.90625C79.9975 6.64958 77.0538 4 73.4352 4ZM76.8727 21.1561H69.9979V9.90625C69.9979 8.20029 71.5399 6.81257 73.4352 6.81257C75.3305 6.81257 76.8725 8.20043 76.8725 9.90625V21.1561H76.8727Z" fill="url(#paint0_linear)"/>
<path d="M78.2924 61.3083L68.0862 52.1225C69.264 49.9604 69.9265 47.5316 69.9265 44.9659C69.9265 35.9712 61.7959 28.6536 51.8021 28.6536C41.8084 28.6536 33.6778 35.9712 33.6778 44.9659C33.6778 47.0223 34.1039 48.9907 34.879 50.8045L33.0501 52.4505L25.5278 45.6801C25.2348 45.4165 24.8373 45.2682 24.423 45.2682C24.0086 45.2682 23.6111 45.4165 23.3181 45.6801L21.5595 47.2629V34.4219C21.5595 33.6453 20.86 33.0156 19.997 33.0156C19.1341 33.0156 18.4345 33.6453 18.4345 34.4219V50.0755L4.30723 62.7905C3.69707 63.3397 3.69707 64.2301 4.30723 64.7794C4.61238 65.0539 5.01222 65.1913 5.41207 65.1913C5.81191 65.1913 6.21191 65.0539 6.51691 64.7794L18.4345 54.0533V64.1875H11.5608C10.6978 64.1875 9.99831 64.8173 9.99831 65.5938V70.0938C9.99831 73.3504 12.9421 76 16.5606 76H63.4352C67.0538 76 69.9977 73.3504 69.9977 70.0935V68.8862C71.0908 69.8412 72.5318 70.3663 74.0707 70.3663C74.0804 70.3663 74.0902 70.3662 74.1001 70.3662C75.6738 70.3593 77.1521 69.8049 78.263 68.8051C80.5674 66.7306 80.5807 63.3678 78.2924 61.3083ZM51.802 31.466C60.0727 31.466 66.8015 37.522 66.8015 44.9659C66.8015 52.4098 60.0727 58.4658 51.802 58.4658C46.1226 58.4658 41.1706 55.6102 38.625 51.4106L47.6546 43.2837V46.4741C47.6546 47.2507 48.3542 47.8804 49.2171 47.8804C50.0801 47.8804 50.7796 47.2507 50.7796 46.4741V39.7251C50.7796 38.9485 50.0801 38.3188 49.2171 38.3188H41.7182C40.8553 38.3188 40.1558 38.9485 40.1558 39.7251C40.1558 40.5016 40.8553 41.1314 41.7182 41.1314H45.6268L37.3497 48.581C36.9937 47.43 36.8026 46.2178 36.8026 44.966C36.8025 37.5219 43.5312 31.466 51.802 31.466ZM16.5605 73.187C14.665 73.1869 13.1231 71.799 13.1231 70.0932V66.9995H56.8726V68.6871C56.8726 68.733 56.8754 68.7785 56.8802 68.8233C56.8754 68.8682 56.8726 68.9136 56.8726 68.9596V70.0932C56.8726 71.2271 57.2301 72.2867 57.8481 73.1872H16.5605V73.187ZM66.8727 70.0928C66.8727 71.799 65.3305 73.1869 63.4352 73.1869C61.5396 73.1869 59.9976 71.7989 59.9976 70.0929V68.9593C59.9976 68.9133 59.9948 68.8679 59.9899 68.8231C59.9948 68.7782 59.9976 68.7328 59.9976 68.6868V65.5931C59.9976 64.8166 59.2981 64.1868 58.4351 64.1868H21.5595V51.2402L24.4228 48.6631L31.9451 55.4336C32.2381 55.6972 32.6356 55.8455 33.05 55.8455C33.4644 55.8455 33.8619 55.6972 34.1548 55.4336L36.3395 53.4673C39.5286 58.1485 45.2667 61.2781 51.802 61.2781C54.639 61.2781 57.3257 60.6877 59.719 59.6372L66.8727 66.0757V70.0928ZM76.0533 66.8157C75.5286 67.288 74.8294 67.5499 74.0847 67.553C74.0802 67.5532 74.0755 67.5532 74.0708 67.5532C73.3371 67.5532 72.653 67.3009 72.1435 66.8422L62.4754 58.1406C63.9826 57.1489 65.3137 55.9532 66.4187 54.5989L76.0827 63.2968C77.1525 64.2598 77.1394 65.8385 76.0533 66.8157Z" fill="url(#paint1_linear)"/>
<path d="M61.6949 43.5597C60.8319 43.5597 60.1324 44.1894 60.1324 44.966C60.1324 49.0999 56.3955 52.4632 51.8022 52.4632C50.9393 52.4632 50.2397 53.0927 50.2397 53.8694C50.2397 54.646 50.9393 55.2757 51.8022 55.2757C58.1186 55.2757 63.2574 50.6507 63.2574 44.966C63.2574 44.1894 62.5578 43.5597 61.6949 43.5597Z" fill="url(#paint2_linear)"/>
<path d="M40.0184 28.1873H38.5923V18.7655C38.5923 17.989 37.8927 17.3592 37.0298 17.3592H29.8545C28.9915 17.3592 28.292 17.989 28.292 18.7655V28.1873H25.7801V12.9999C25.7801 12.2234 25.0806 11.5936 24.2176 11.5936H17.3428C16.4798 11.5936 15.7803 12.2234 15.7803 12.9999V28.1872H13.2808V21.9997C13.2808 21.2232 12.5812 20.5934 11.7183 20.5934H4.84358C3.98062 20.5934 3.28109 21.2232 3.28109 21.9997V28.1872H1.5625C0.69953 28.1872 0 28.8169 0 29.5935C0 30.37 0.69953 30.9998 1.5625 30.9998H40.0185C40.8815 30.9998 41.581 30.37 41.581 29.5935C41.5809 28.8169 40.8813 28.1873 40.0184 28.1873ZM10.1559 28.1873H6.40608V23.4061H10.1559V28.1873ZM22.6554 28.1873H18.9056V14.4062H22.6554V28.1873ZM35.4674 28.1873H31.4171V20.1718H35.4674V28.1873Z" fill="url(#paint3_linear)"/>
<path d="M52.7265 11.5936H40.6235C39.7606 11.5936 39.061 12.2234 39.061 12.9999C39.061 13.7765 39.7606 14.4062 40.6235 14.4062H52.7265C53.5894 14.4062 54.289 13.7765 54.289 12.9999C54.2888 12.2234 53.5894 11.5936 52.7265 11.5936Z" fill="url(#paint4_linear)"/>
<path d="M61.5607 12.0055C61.2701 11.744 60.867 11.5935 60.4561 11.5935C60.0451 11.5935 59.642 11.7438 59.3514 12.0055C59.0607 12.2673 58.8936 12.6299 58.8936 12.9998C58.8936 13.3696 59.0607 13.7325 59.3514 13.9939C59.642 14.2555 60.0451 14.4061 60.4561 14.4061C60.867 14.4061 61.2701 14.2556 61.5607 13.9939C61.8514 13.7325 62.0185 13.3696 62.0185 12.9998C62.0185 12.6301 61.8514 12.2673 61.5607 12.0055Z" fill="url(#paint5_linear)"/>
<path d="M46.6753 17.7811H44.1133C43.2503 17.7811 42.5508 18.4109 42.5508 19.1874C42.5508 19.964 43.2503 20.5937 44.1133 20.5937H46.6753C47.5383 20.5937 48.2378 19.964 48.2378 19.1874C48.2378 18.4109 47.5383 17.7811 46.6753 17.7811Z" fill="url(#paint6_linear)"/>
<path d="M60.4558 17.7811H52.727C51.8641 17.7811 51.1646 18.4109 51.1646 19.1874C51.1646 19.964 51.8641 20.5937 52.727 20.5937H60.4558C61.3187 20.5937 62.0183 19.964 62.0183 19.1874C62.0183 18.4109 61.3187 17.7811 60.4558 17.7811Z" fill="url(#paint7_linear)"/>
<path d="M2.66865 66.2542C2.37802 65.9927 1.9749 65.842 1.56396 65.842C1.15146 65.842 0.749901 65.9925 0.459276 66.2542C0.16709 66.5157 0.00146484 66.8785 0.00146484 67.2483C0.00146484 67.6182 0.16709 67.981 0.459276 68.2426C0.749901 68.5041 1.15146 68.6546 1.56396 68.6546C1.9749 68.6546 2.37646 68.5043 2.66865 68.2426C2.95927 67.981 3.12646 67.6182 3.12646 67.2483C3.12646 66.8783 2.95927 66.5155 2.66865 66.2542Z" fill="url(#paint8_linear)"/>
<defs>
<linearGradient id="paint0_linear" x1="51.7163" y1="4" x2="51.7163" y2="29.7323" gradientUnits="userSpaceOnUse">
<stop stop-color="#0099FF"/>
<stop offset="1" stop-color="#005BAA"/>
</linearGradient>
<linearGradient id="paint1_linear" x1="41.9248" y1="28.6536" x2="41.9248" y2="76" gradientUnits="userSpaceOnUse">
<stop stop-color="#0099FF"/>
<stop offset="1" stop-color="#005BAA"/>
</linearGradient>
<linearGradient id="paint2_linear" x1="56.7486" y1="43.5597" x2="56.7486" y2="55.2757" gradientUnits="userSpaceOnUse">
<stop stop-color="#0099FF"/>
<stop offset="1" stop-color="#005BAA"/>
</linearGradient>
<linearGradient id="paint3_linear" x1="20.7905" y1="11.5936" x2="20.7905" y2="30.9998" gradientUnits="userSpaceOnUse">
<stop stop-color="#0099FF"/>
<stop offset="1" stop-color="#005BAA"/>
</linearGradient>
<linearGradient id="paint4_linear" x1="46.675" y1="11.5936" x2="46.675" y2="14.4062" gradientUnits="userSpaceOnUse">
<stop stop-color="#0099FF"/>
<stop offset="1" stop-color="#005BAA"/>
</linearGradient>
<linearGradient id="paint5_linear" x1="60.4561" y1="11.5935" x2="60.4561" y2="14.4061" gradientUnits="userSpaceOnUse">
<stop stop-color="#0099FF"/>
<stop offset="1" stop-color="#005BAA"/>
</linearGradient>
<linearGradient id="paint6_linear" x1="45.3943" y1="17.7811" x2="45.3943" y2="20.5937" gradientUnits="userSpaceOnUse">
<stop stop-color="#0099FF"/>
<stop offset="1" stop-color="#005BAA"/>
</linearGradient>
<linearGradient id="paint7_linear" x1="56.5914" y1="17.7811" x2="56.5914" y2="20.5937" gradientUnits="userSpaceOnUse">
<stop stop-color="#0099FF"/>
<stop offset="1" stop-color="#005BAA"/>
</linearGradient>
<linearGradient id="paint8_linear" x1="1.56396" y1="65.842" x2="1.56396" y2="68.6546" gradientUnits="userSpaceOnUse">
<stop stop-color="#0099FF"/>
<stop offset="1" stop-color="#005BAA"/>
</linearGradient>
</defs>
</svg>
