<svg width="80" height="80" viewBox="0 0 80 80" fill="none" xmlns="http://www.w3.org/2000/svg">
<path d="M5.39404 35.3958C6.04123 35.3958 6.56592 34.8712 6.56592 34.2239V24.7628C6.56592 22.1159 8.26514 20.1948 10.6061 20.1948H24.4056C25.0528 20.1948 25.5775 19.6703 25.5775 19.0229C25.5775 18.3756 25.0528 17.8511 24.4056 17.8511H10.6061C6.9667 17.8511 4.22217 20.8225 4.22217 24.7628V34.2239C4.22217 34.8712 4.74686 35.3958 5.39404 35.3958Z" fill="url(#paint0_linear)"/>
<path d="M10.6062 22.4263C9.52418 22.4263 8.7973 23.3653 8.7973 24.763V60.9482C8.7973 61.2217 8.89308 61.4867 9.06793 61.6972C9.36058 62.0494 9.9184 62.4255 10.6062 62.4255H69.3932C70.0807 62.4255 70.6387 62.0496 70.9314 61.6975C71.1065 61.4871 71.2023 61.2219 71.2023 60.9482V54.8858C71.2023 54.2385 70.6778 53.7139 70.0304 53.7139C69.3831 53.7139 68.8586 54.2385 68.8586 54.8858V60.0817H11.1411V24.77H24.7976C25.4448 24.77 25.9695 24.2455 25.9695 23.5981C25.9695 22.9508 25.4448 22.4263 24.7976 22.4263H10.6062Z" fill="url(#paint1_linear)"/>
<path d="M70.0303 51.3888C70.6777 51.3888 71.2022 50.8642 71.2022 50.2169V24.763C71.2022 23.3653 70.4752 22.4263 69.3932 22.4263H55.5208C54.8735 22.4263 54.3489 22.9508 54.3489 23.5981C54.3489 24.2455 54.8735 24.77 55.5208 24.77H68.8585V50.2167C68.8585 50.8641 69.3832 51.3888 70.0303 51.3888Z" fill="url(#paint2_linear)"/>
<path d="M77.7723 67.3017H75.7781V24.7628C75.7781 20.823 73.0334 17.8521 69.3938 17.8521H55.6984C55.0511 17.8521 54.5266 18.3766 54.5266 19.0239C54.5266 19.6713 55.0511 20.1958 55.6984 20.1958H69.3938C71.735 20.1958 73.4344 22.1166 73.4344 24.7628V67.3017H48.0942C46.8659 67.3017 45.8666 68.3011 45.8666 69.5294V70.6119H34.1334V69.5294C34.1334 68.3011 33.1341 67.3017 31.9058 67.3017H6.56563V38.9111C6.56563 38.2638 6.04094 37.7392 5.39375 37.7392C4.74656 37.7392 4.22188 38.2638 4.22188 38.9111V67.3016H2.22766C0.999375 67.3017 0 68.301 0 69.5292V72.2819C0 75.0606 2.26062 77.3213 5.03937 77.3213H74.9606C77.7394 77.3213 80 75.0606 80 72.2819V69.5292C80 68.301 79.0006 67.3017 77.7723 67.3017ZM77.6562 72.282C77.6562 73.7685 76.447 74.9777 74.9606 74.9777H5.03937C3.55297 74.9777 2.34375 73.7685 2.34375 72.282V69.6455H5.39078C5.39172 69.6455 5.39281 69.6456 5.39375 69.6456C5.39469 69.6456 5.39578 69.6455 5.39672 69.6455H31.7897V70.728C31.7897 71.9563 32.7891 72.9556 34.0173 72.9556H45.9827C47.2109 72.9556 48.2103 71.9563 48.2103 70.728V69.6455H74.6033C74.6042 69.6455 74.6053 69.6456 74.6063 69.6456C74.6072 69.6456 74.6083 69.6455 74.6092 69.6455H77.6562V72.282Z" fill="url(#paint3_linear)"/>
<path d="M40.0001 27.25C42.9143 27.25 45.2852 24.8791 45.2852 21.9648C45.2852 19.0506 42.9143 16.6797 40.0001 16.6797C37.0858 16.6797 34.7149 19.0506 34.7149 21.9648C34.7149 24.8791 37.0858 27.25 40.0001 27.25ZM40.0001 19.0234C41.6219 19.0234 42.9415 20.343 42.9415 21.9648C42.9415 23.5867 41.6219 24.9063 40.0001 24.9063C38.3782 24.9063 37.0587 23.5867 37.0587 21.9648C37.0587 20.343 38.3782 19.0234 40.0001 19.0234Z" fill="url(#paint4_linear)"/>
<path d="M28.3505 23.9286C25.1388 27.0613 23.308 31.3805 23.308 35.8815C23.308 36.2594 23.3205 36.633 23.345 36.9907C23.4505 38.5408 24.7478 39.7549 26.2986 39.7549H32.5085C32.6299 40.0818 32.7522 40.4063 32.8763 40.7252C33.3614 41.9713 34.5389 42.7765 35.876 42.7765H44.1246C45.4617 42.7765 46.6391 41.9713 47.1241 40.7252C47.2481 40.4063 47.3705 40.0818 47.4919 39.7549H53.7019C55.2525 39.7549 56.5499 38.5407 56.6553 36.9911C56.6799 36.6322 56.6924 36.2588 56.6924 35.8813C56.6924 31.3804 54.8616 27.0613 51.6499 23.9285C51.9922 21.7386 52.1836 19.7488 52.1836 18.1313C52.1836 9.8852 41.8361 3.88738 40.6539 3.22926C40.6477 3.22582 40.6411 3.22207 40.6353 3.21895C40.6338 3.21816 40.6324 3.21738 40.6308 3.21645C40.5956 3.19691 40.5706 3.18332 40.5585 3.17676C40.5569 3.17598 40.5553 3.17551 40.5539 3.17457C40.5146 3.15348 40.4744 3.13535 40.4339 3.1191C40.4233 3.11488 40.4125 3.11145 40.4019 3.10754C40.3688 3.09535 40.3353 3.08473 40.3017 3.07566C40.2908 3.0727 40.28 3.07004 40.2691 3.06738C40.2327 3.05879 40.1961 3.05191 40.1595 3.04691C40.1519 3.04582 40.1444 3.04441 40.1367 3.04363C40.046 3.03301 39.9552 3.03301 39.8656 3.04348C39.8561 3.04457 39.8466 3.04645 39.837 3.0477C39.8025 3.0527 39.7683 3.05895 39.7342 3.06691C39.7222 3.06973 39.7102 3.0727 39.6981 3.07582C39.6624 3.08535 39.6271 3.0966 39.5922 3.10957C39.5852 3.11223 39.578 3.11426 39.5711 3.11691C39.5283 3.13379 39.4866 3.15301 39.4461 3.17488C39.4449 3.17551 39.4435 3.17598 39.442 3.17676C39.3752 3.21301 37.7806 4.08207 35.7867 5.59707C35.2714 5.98879 35.1713 6.72395 35.5628 7.23926C35.9545 7.75473 36.6897 7.85473 37.2049 7.46332C38.3702 6.5777 39.3981 5.92457 39.9994 5.56254C41.2799 6.33566 44.5022 8.43598 46.9153 11.3175C46.9227 11.3263 46.93 11.335 46.9374 11.3438C47.0025 11.4219 47.0669 11.5008 47.1308 11.58C47.1602 11.6164 47.1891 11.6529 47.2178 11.6891C47.2625 11.7454 47.3067 11.8018 47.3508 11.8585C47.3666 11.8789 47.3816 11.8993 47.3972 11.9196H32.6019C32.9763 11.4311 33.392 10.9429 33.8472 10.4575C34.29 9.98551 34.2663 9.24379 33.7942 8.80098C33.3222 8.35832 32.5805 8.38192 32.1378 8.8541C31.5224 9.51035 30.9706 10.1757 30.4822 10.8439C30.4667 10.8627 30.451 10.881 30.4364 10.9008C30.3875 10.9685 30.3416 11.0361 30.2941 11.1036C30.2795 11.1244 30.2649 11.1452 30.2505 11.1658C30.16 11.2955 30.0722 11.4252 29.9867 11.555C29.9697 11.5808 29.9528 11.6064 29.9361 11.6322C29.8555 11.756 29.7774 11.8799 29.7014 12.0039C29.6819 12.0358 29.6624 12.0677 29.6431 12.0994C29.5716 12.2182 29.5022 12.3369 29.4349 12.4557C29.4231 12.4763 29.4102 12.4969 29.3986 12.5175C29.3961 12.5221 29.3944 12.5269 29.392 12.5314C28.3475 14.3971 27.817 16.2741 27.817 18.1313C27.8167 19.7489 28.0081 21.7388 28.3505 23.9286ZM26.2986 37.4111C25.9758 37.4111 25.7055 37.1566 25.6833 36.8307C25.6624 36.5254 25.6516 36.206 25.6516 35.8815C25.6516 32.5693 26.8049 29.3713 28.8689 26.8296C29.5531 30.2569 30.531 33.9618 31.6831 37.4111H26.2986ZM54.3486 35.8815C54.3486 36.2057 54.338 36.5252 54.3171 36.8315C54.2949 37.1565 54.0247 37.4111 53.7017 37.4111H48.3171C49.4691 33.9619 50.4471 30.2569 51.1313 26.8297C53.1953 29.3713 54.3486 32.5693 54.3486 35.8815ZM48.8666 14.2633C49.6177 15.8011 49.8397 17.1154 49.8397 18.1314C49.8397 23.2661 47.6875 32.8169 44.9399 39.8749C44.808 40.2136 44.4878 40.4325 44.1244 40.4325H35.8758C35.5122 40.4325 35.1922 40.2136 35.0602 39.8749C32.3127 32.8171 30.1603 23.2663 30.1603 18.1314C30.1603 16.8699 30.4863 15.575 31.1285 14.2633H48.8666Z" fill="url(#paint5_linear)"/>
<path d="M40 55.1357C39.0239 54.2668 38.4041 53.0705 38.2675 51.7543C38.2007 51.1107 37.6243 50.6422 36.981 50.7096C36.3372 50.7765 35.8694 51.3524 35.9363 51.9961C36.174 54.2869 37.4221 56.3252 39.3607 57.588C39.555 57.7147 39.7777 57.778 40.0004 57.778C40.223 57.778 40.4457 57.7147 40.64 57.588C42.8099 56.1743 44.1054 53.7872 44.1054 51.2027C44.1054 48.618 42.8099 46.231 40.64 44.8174C40.2513 44.5641 39.7496 44.5641 39.3607 44.8174C38.663 45.2718 38.0475 45.8338 37.5311 46.4877C37.13 46.9957 37.2166 47.7326 37.7246 48.1337C38.2324 48.5344 38.9693 48.4483 39.3705 47.9404C39.5618 47.6982 39.7724 47.4744 40.0008 47.2704C41.1152 48.264 41.7616 49.6843 41.7616 51.2027C41.7613 52.7215 41.1147 54.1419 40 55.1357Z" fill="url(#paint6_linear)"/>
<defs>
<linearGradient id="paint0_linear" x1="14.8998" y1="17.8511" x2="14.8998" y2="35.3958" gradientUnits="userSpaceOnUse">
<stop stop-color="#0194F8"/>
<stop offset="1" stop-color="#0169BE"/>
</linearGradient>
<linearGradient id="paint1_linear" x1="39.9998" y1="22.4263" x2="39.9998" y2="62.4255" gradientUnits="userSpaceOnUse">
<stop stop-color="#0194F8"/>
<stop offset="1" stop-color="#0169BE"/>
</linearGradient>
<linearGradient id="paint2_linear" x1="62.7756" y1="22.4263" x2="62.7756" y2="51.3888" gradientUnits="userSpaceOnUse">
<stop stop-color="#0194F8"/>
<stop offset="1" stop-color="#0169BE"/>
</linearGradient>
<linearGradient id="paint3_linear" x1="40" y1="17.8521" x2="40" y2="77.3213" gradientUnits="userSpaceOnUse">
<stop stop-color="#0194F8"/>
<stop offset="1" stop-color="#0169BE"/>
</linearGradient>
<linearGradient id="paint4_linear" x1="40.0001" y1="16.6797" x2="40.0001" y2="27.25" gradientUnits="userSpaceOnUse">
<stop stop-color="#0194F8"/>
<stop offset="1" stop-color="#0169BE"/>
</linearGradient>
<linearGradient id="paint5_linear" x1="40.0002" y1="3.03564" x2="40.0002" y2="42.7765" gradientUnits="userSpaceOnUse">
<stop stop-color="#0194F8"/>
<stop offset="1" stop-color="#0169BE"/>
</linearGradient>
<linearGradient id="paint6_linear" x1="40.0176" y1="44.6274" x2="40.0176" y2="57.778" gradientUnits="userSpaceOnUse">
<stop stop-color="#0194F8"/>
<stop offset="1" stop-color="#0169BE"/>
</linearGradient>
</defs>
</svg>
