<svg width="80" height="80" viewBox="0 0 80 80" fill="none" xmlns="http://www.w3.org/2000/svg">
<path d="M40.0157 53.743C39.0701 53.0403 37.9087 52.8082 36.8254 53.0063C36.6552 51.9993 36.1087 51.1089 35.2761 50.4901C34.4132 49.849 33.3478 49.5761 32.2755 49.7212C32.0099 49.7572 31.7518 49.818 31.5037 49.9017C31.2686 49.1108 30.7827 48.3845 30.0632 47.8499C28.8782 46.9693 27.3547 46.8285 26.0703 47.3466C25.8146 46.5916 25.3343 45.9297 24.6738 45.4389C23.8111 44.7978 22.7451 44.525 21.6733 44.67C20.8039 44.7877 20.0149 45.1691 19.399 45.7604L15.147 45.4831L17.7532 24.7136L22.4231 25.0249C22.4496 25.0266 22.4759 25.0275 22.5021 25.0275C22.9355 25.0275 23.3359 24.7898 23.5355 24.4075L25.2856 21.0574C25.7291 20.2094 26.7301 19.7783 27.6661 20.0325L30.2652 20.7375C30.8831 20.9048 31.5234 20.5494 31.6945 19.9428C31.8655 19.3362 31.5028 18.7084 30.8844 18.5406L28.2859 17.8357C26.294 17.2947 24.1627 18.2119 23.2186 20.0173L21.8173 22.6997L18.0377 22.4478L18.1272 21.7342C18.4135 19.4535 16.755 17.3698 14.4303 17.089L5.4795 16.0086C4.84166 15.932 4.26299 16.3759 4.18462 17.0004C4.10624 17.6251 4.55899 18.1938 5.19559 18.2707L14.1464 19.3517C14.6566 19.4133 15.1118 19.6661 15.4281 20.0636C15.7444 20.4611 15.8841 20.9558 15.8212 21.4563L12.7476 45.9512C12.6179 46.9844 11.6554 47.7209 10.6023 47.5945L1.65154 46.5135C1.01401 46.4372 0.435033 46.8806 0.356658 47.5053C0.278284 48.13 0.731028 48.6987 1.36763 48.7756L10.3184 49.8566C10.4938 49.8777 10.668 49.8881 10.8404 49.8881C12.4094 49.8881 13.825 49.0329 14.5584 47.7292L17.7394 47.9367C17.3591 48.6587 17.2134 49.4761 17.3289 50.2977C17.477 51.3494 18.0337 52.2818 18.8964 52.9227C19.6078 53.4514 20.4569 53.7296 21.3342 53.7296C21.5209 53.7296 21.7087 53.717 21.8969 53.6916C21.909 53.6899 21.9208 53.6877 21.9327 53.6858C21.9343 53.6977 21.9352 53.7094 21.9367 53.7212C22.0848 54.7729 22.6415 55.7053 23.5042 56.3462C24.2345 56.8887 25.0933 57.1508 25.9456 57.1508C26.1454 57.1508 26.3448 57.1349 26.5421 57.1063C26.6759 58.1287 27.2105 59.0998 28.1122 59.7698C28.8425 60.3124 29.7012 60.5744 30.5536 60.5744C30.7528 60.5744 30.9515 60.5586 31.1482 60.5301C31.1499 60.5428 31.1509 60.5555 31.1526 60.5681C31.3006 61.6198 31.8573 62.5522 32.7202 63.1931C33.4316 63.7216 34.2807 64 35.1579 64C35.3447 64 35.5326 63.9874 35.7206 63.962C36.7927 63.8167 37.743 63.2706 38.3963 62.4242L40.7993 59.3115C42.1484 57.5643 41.7968 55.0662 40.0157 53.743ZM21.5793 51.4339C21.1222 51.4959 20.6674 51.3793 20.2994 51.1058C19.9314 50.8325 19.6939 50.4346 19.6307 49.9861C19.5675 49.5373 19.6863 49.0915 19.9651 48.7303L20.85 47.584C21.1287 47.2229 21.5342 46.99 21.9914 46.928C22.4488 46.8665 22.9033 46.9826 23.2714 47.2561C23.6395 47.5294 23.8769 47.9272 23.9401 48.3758C24.0033 48.8244 23.8845 49.2702 23.6058 49.6314L22.7208 50.7777C22.442 51.1388 22.0366 51.3719 21.5793 51.4339ZM24.9072 54.5293C24.5392 54.256 24.3018 53.8582 24.2386 53.4096C24.1754 52.9609 24.2942 52.515 24.573 52.1538L25.4579 51.0077C25.4579 51.0077 25.458 51.0075 25.458 51.0073L26.2394 49.995C26.579 49.5553 27.0961 49.3239 27.6194 49.3239C27.9829 49.3239 28.3492 49.4357 28.6607 49.6671C29.4204 50.2316 29.5705 51.2971 28.9951 52.0426L27.3286 54.2014C26.7532 54.9468 25.667 55.0938 24.9072 54.5293ZM29.5152 57.9529C29.1472 57.6795 28.9098 57.2817 28.8466 56.833C28.7834 56.3845 28.902 55.9387 29.1805 55.5778C29.1807 55.5777 29.1807 55.5775 29.1808 55.5774L30.8473 53.4184L31.452 52.6351C31.7306 52.274 32.1361 52.0411 32.5935 51.9791C33.0511 51.9174 33.5053 52.0336 33.8735 52.3072C34.6329 52.8714 34.783 53.9364 34.2084 54.6817L31.9366 57.6246C31.9365 57.6248 31.9363 57.6249 31.9363 57.6251C31.3607 58.3701 30.2751 58.5174 29.5152 57.9529ZM38.9474 57.9355L36.5444 61.0483C36.2658 61.4093 35.8603 61.6423 35.4031 61.7043C34.9454 61.7661 34.4911 61.6497 34.1231 61.3764C33.755 61.103 33.5176 60.7052 33.4544 60.2566C33.3912 59.8079 33.51 59.3621 33.7888 59.0009L36.0601 56.0587C36.0606 56.0583 36.0609 56.0577 36.0613 56.0572L36.1919 55.8881C36.4706 55.5271 36.8761 55.2941 37.3335 55.2321C37.7909 55.1706 38.2453 55.2867 38.6135 55.5602C39.3727 56.1244 39.5228 57.1902 38.9474 57.9355Z" fill="url(#paint0_linear)"/>
<path d="M79.6438 47.5052C79.5654 46.8807 78.9863 46.4371 78.3489 46.5134L69.3983 47.5944C68.3436 47.7216 67.3827 46.9843 67.253 45.9512L67.1613 45.2201L67.1401 45.0509L64.1795 21.4562C64.1167 20.9557 64.2564 20.4612 64.5727 20.0636C64.8889 19.6661 65.3442 19.4132 65.8544 19.3517L74.8052 18.2707C75.4419 18.1938 75.8945 17.625 75.8161 17.0003C75.7378 16.3758 75.1586 15.9323 74.5213 16.0085L65.5705 17.0895C63.3829 17.3538 61.786 19.2145 61.8435 21.3335L59.5863 21.6061L52.5967 17.7472C51.6069 17.2002 50.4849 16.9652 49.3519 17.0673C49.3496 17.0675 49.3472 17.0681 49.3449 17.0683L47.2411 17.2591C46.6021 17.317 46.1322 17.8721 46.1914 18.4989C46.2504 19.1256 46.8153 19.5858 47.4551 19.5287L49.5649 19.3372C50.225 19.2774 50.8793 19.4144 51.4567 19.7332L58.7035 23.7342C58.9303 23.881 59.2063 23.9481 59.4854 23.9145L62.1071 23.598L64.0301 38.9215L64.695 44.2207L60.5134 44.2241C60.2346 44.2242 59.9654 44.3228 59.7549 44.5014L59.4314 44.7485L48.9332 35.8719C51.3323 35.1953 53.6193 33.5586 55.7575 30.9825C56.1626 30.4944 56.0878 29.7766 55.5903 29.3791C55.0927 28.9817 54.3609 29.0551 53.9559 29.5432C51.5659 32.4227 49.053 33.9049 46.4867 33.9484C42.7481 34.0173 40.0012 30.9761 39.9759 30.9477C39.7475 30.6885 39.4126 30.545 39.0635 30.5534C38.7143 30.5631 38.3883 30.7266 38.1755 30.9982L35.0549 34.9824C33.4107 37.0818 30.6099 37.864 28.085 36.9283L27.7518 36.8048C27.4592 36.6963 27.34 36.472 27.2951 36.3479C27.2501 36.2237 27.1981 35.9759 27.3551 35.7106L35.4999 21.9577C36.0267 21.0681 36.9647 20.4805 38.009 20.3857L42.8312 19.9482C43.4701 19.8902 43.94 19.3351 43.8809 18.7085C43.8217 18.0818 43.2559 17.6209 42.6171 17.6787L37.7949 18.1161C36.0036 18.2787 34.3946 19.2868 33.4908 20.8127L25.3461 34.5656C24.8876 35.3399 24.7999 36.2679 25.1058 37.1117C25.4117 37.9555 26.077 38.6208 26.9307 38.9371L27.2639 39.0607C28.2465 39.4248 29.2591 39.6006 30.2581 39.6006C32.8065 39.6004 35.2646 38.4556 36.8972 36.3713L39.2253 33.3987C40.473 34.4536 42.8005 36.016 45.7716 36.2079L60.9423 49.0352C61.2151 49.2658 61.3801 49.5867 61.4067 49.9389C61.4333 50.2911 61.3187 50.6326 61.0841 50.8999L60.4928 51.5726C59.7501 52.4165 58.4446 52.5103 57.5828 51.782C57.5346 51.7412 57.4833 51.7063 57.4308 51.6747L53.4926 48.3432C53.007 47.9324 52.2733 47.9855 51.8541 48.4622C51.4352 48.9389 51.4895 49.6586 51.9754 50.0696L55.1758 52.7768L53.7159 54.4389C53.2674 54.9493 52.5924 55.2071 51.911 55.1286C51.5032 55.0815 51.1214 54.916 50.8069 54.6499C50.8014 54.6452 50.7953 54.6413 50.7897 54.6367L47.1305 51.5414C46.6446 51.1305 45.9112 51.1837 45.492 51.6604C45.073 52.1371 45.1274 52.8567 45.6133 53.2678L48.4097 55.6332L46.9412 57.3064C46.4925 57.817 45.8159 58.0748 45.1344 57.9961C44.497 57.9223 43.9199 58.3699 43.8451 58.9949C43.7703 59.62 44.226 60.1864 44.8632 60.2598C45.0353 60.2795 45.2069 60.2894 45.3779 60.2894C46.6464 60.2894 47.8606 59.7504 48.7014 58.7942L50.2713 57.0055C50.7002 57.2061 51.1613 57.3372 51.6396 57.3924C53.0894 57.5595 54.5226 57.0117 55.4758 55.9271L57.0484 54.1366C58.7875 54.9459 60.9355 54.5577 62.2521 53.0614L62.8441 52.3878C63.4841 51.6589 63.7965 50.7291 63.7239 49.7698C63.6512 48.8103 63.2019 47.9362 62.4593 47.3087L61.5058 46.5026L64.991 46.4997C65.3719 48.4691 67.1384 49.8882 69.1599 49.8882C69.3321 49.8882 69.5067 49.8778 69.6819 49.8567L78.6327 48.7757C79.2694 48.6987 79.7222 48.1301 79.6438 47.5052Z" fill="url(#paint1_linear)"/>
<path d="M72.2177 39.2783C70.3389 39.2783 68.8103 40.7778 68.8103 42.621C68.8103 44.4642 70.3389 45.9639 72.2177 45.9639C74.0966 45.9639 75.625 44.4642 75.625 42.621C75.625 40.7778 74.0966 39.2783 72.2177 39.2783ZM72.2177 43.6845C71.62 43.6845 71.1337 43.2074 71.1337 42.621C71.1337 42.0346 71.62 41.5576 72.2177 41.5576C72.8155 41.5576 73.3017 42.0346 73.3017 42.621C73.3017 43.2074 72.8155 43.6845 72.2177 43.6845Z" fill="url(#paint2_linear)"/>
<path d="M11.0648 42.621C11.0648 40.7778 9.5363 39.2783 7.65747 39.2783C5.77865 39.2783 4.25018 40.7778 4.25018 42.621C4.25018 44.4642 5.77865 45.9639 7.65747 45.9639C9.5363 45.9639 11.0648 44.4642 11.0648 42.621ZM6.57355 42.621C6.57355 42.0346 7.05975 41.5576 7.65747 41.5576C8.2552 41.5576 8.7414 42.0346 8.7414 42.621C8.7414 43.2074 8.2552 43.6845 7.65747 43.6845C7.05975 43.6845 6.57355 43.2074 6.57355 42.621Z" fill="url(#paint3_linear)"/>
<defs>
<linearGradient id="paint0_linear" x1="20.9838" y1="16" x2="20.9838" y2="64" gradientUnits="userSpaceOnUse">
<stop stop-color="#0195FA"/>
<stop offset="1" stop-color="#0168BC"/>
</linearGradient>
<linearGradient id="paint1_linear" x1="52.2894" y1="16" x2="52.2894" y2="60.2894" gradientUnits="userSpaceOnUse">
<stop stop-color="#0195FA"/>
<stop offset="1" stop-color="#0168BC"/>
</linearGradient>
<linearGradient id="paint2_linear" x1="72.2177" y1="39.2783" x2="72.2177" y2="45.9639" gradientUnits="userSpaceOnUse">
<stop stop-color="#0195FA"/>
<stop offset="1" stop-color="#0168BC"/>
</linearGradient>
<linearGradient id="paint3_linear" x1="7.65747" y1="39.2783" x2="7.65747" y2="45.9639" gradientUnits="userSpaceOnUse">
<stop stop-color="#0195FA"/>
<stop offset="1" stop-color="#0168BC"/>
</linearGradient>
</defs>
</svg>
