<svg width="80" height="80" viewBox="0 0 80 80" fill="none" xmlns="http://www.w3.org/2000/svg">
<path d="M37.3206 51.4198C37.3231 51.4198 37.3252 51.4198 37.3276 51.4198C38.3454 51.4198 39.3023 51.024 40.0227 50.3047C40.7449 49.5838 41.1426 48.6249 41.1426 47.6044V40.6883V39.6408V38.8474C41.1426 36.7462 39.4332 35.0366 37.3318 35.0366C35.2304 35.0366 33.521 36.746 33.521 38.8474V40.6883C33.521 42.7896 35.2304 44.4991 37.3318 44.4991C37.8515 44.4991 38.347 44.3943 38.7988 44.2051V47.6044C38.7988 47.9982 38.6456 48.368 38.3668 48.646C38.089 48.9233 37.7199 49.076 37.3273 49.076C37.3265 49.076 37.3256 49.076 37.3246 49.076C36.5146 49.0746 35.8557 48.4146 35.8557 47.6044V47.2257C35.8557 46.5783 35.3312 46.0538 34.6838 46.0538C34.0365 46.0538 33.512 46.5783 33.512 47.2257V47.6044C33.512 49.7046 35.2207 51.4162 37.3206 51.4198ZM37.3318 42.1554C36.5229 42.1554 35.8648 41.4972 35.8648 40.6883V38.8474C35.8648 38.0385 36.5229 37.3804 37.3318 37.3804C38.1407 37.3804 38.7988 38.0385 38.7988 38.8474V39.6408V40.6883C38.7988 41.4972 38.1407 42.1554 37.3318 42.1554Z" fill="url(#paint0_linear)"/>
<path d="M47.33 46.0538C46.6826 46.0538 46.1581 46.5783 46.1581 47.2257V47.6044C46.1581 49.7046 47.8668 51.4163 49.9667 51.4198C49.9692 51.4198 49.9714 51.4198 49.9737 51.4198C50.9915 51.4198 51.9485 51.024 52.669 50.3046C53.3912 49.5838 53.7889 48.6248 53.7889 47.6044V40.6883V39.6408V38.8474C53.7889 36.7462 52.0793 35.0366 49.9779 35.0366C47.8765 35.0366 46.1671 36.746 46.1671 38.8474V40.6883C46.1671 42.7896 47.8765 44.4991 49.9779 44.4991C50.4976 44.4991 50.9932 44.3943 51.4451 44.2051V47.6044C51.4451 47.998 51.2918 48.3679 51.0131 48.6458C50.7353 48.9232 50.3661 49.076 49.9734 49.076C49.9726 49.076 49.9717 49.076 49.9707 49.076C49.1607 49.0746 48.5018 48.4146 48.5018 47.6044V47.2257C48.5018 46.5785 47.9771 46.0538 47.33 46.0538ZM49.9779 42.1554C49.169 42.1554 48.5109 41.4972 48.5109 40.6883V38.8474C48.5109 38.0385 49.169 37.3804 49.9779 37.3804C50.787 37.3804 51.4451 38.0385 51.4451 38.8474V39.6408V40.6883C51.4451 41.4972 50.787 42.1554 49.9779 42.1554Z" fill="url(#paint1_linear)"/>
<path d="M44.933 49.4293V49.2598C44.933 48.6124 44.4085 48.0879 43.7611 48.0879C43.1138 48.0879 42.5892 48.6124 42.5892 49.2598V49.4293C42.5892 50.0766 43.1138 50.6012 43.7611 50.6012C44.4085 50.6012 44.933 50.0765 44.933 49.4293Z" fill="url(#paint2_linear)"/>
<path d="M29.4238 51.5145V41.6128C29.4238 35.7416 24.6472 30.9648 18.776 30.9648H16.098H13.8352H11.1574C9.28147 30.9648 7.43646 31.4598 5.82193 32.3961C5.26209 32.7208 5.07147 33.438 5.396 33.9978C5.72084 34.5577 6.43803 34.7484 6.99771 34.4238C8.25553 33.6942 9.69396 33.3086 11.1574 33.3086H12.269L9.58318 42.4375C9.4635 42.8442 9.57287 43.2837 9.86897 43.5869L14.1282 47.9492C14.3487 48.175 14.651 48.3025 14.9666 48.3025C15.2822 48.3025 15.5846 48.1751 15.8051 47.9492L20.0644 43.5869C20.3607 43.2837 20.4699 42.8441 20.3502 42.4375L17.6644 33.3086H18.776C23.3549 33.3086 27.0801 37.0339 27.0801 41.6128V50.3426H2.85303V41.6128C2.85303 40.112 3.2574 38.6419 4.02209 37.3616C4.35396 36.8058 4.17271 36.0864 3.61693 35.7545C3.06146 35.4228 2.34193 35.6039 2.01006 36.1597C1.02818 37.8033 0.509277 39.6891 0.509277 41.6128V51.5145C0.509277 52.1619 1.03381 52.6864 1.68115 52.6864H28.2519C28.8993 52.6864 29.4238 52.1619 29.4238 51.5145ZM17.908 42.4406L14.9666 45.4531L12.0254 42.4406L14.7121 33.3086H15.2213L17.908 42.4406Z" fill="url(#paint3_linear)"/>
<path d="M14.9667 29.1933C18.1484 29.1933 21.1454 27.9598 23.4056 25.7203C23.8653 25.2648 23.8687 24.5228 23.4131 24.0631C22.9578 23.6034 22.2157 23.6 21.7559 24.0556C19.9376 25.8572 17.5265 26.8495 14.9668 26.8495C9.64838 26.8495 5.32166 22.5228 5.32166 17.2044V14.6678C6.62526 15.0586 7.97588 15.2569 9.35557 15.2569C12.8607 15.2569 16.2374 13.9392 18.8163 11.6019C20.3221 13.3553 22.3503 14.5564 24.6123 15.03V17.2042C24.6123 18.3767 24.4046 19.5219 23.9948 20.6078C23.7663 21.2133 24.072 21.8894 24.6776 22.118C25.2834 22.3461 25.9592 22.0409 26.1878 21.4352C26.6976 20.0839 26.956 18.6603 26.956 17.2042V14.0308V11.9889C26.956 11.775 26.9499 11.5627 26.9388 11.3516C26.9363 11.3036 26.931 11.2564 26.9279 11.2086C26.9173 11.0437 26.9051 10.8794 26.8879 10.7164C26.8826 10.6661 26.8748 10.6164 26.8688 10.5662C26.8498 10.4058 26.8292 10.2459 26.8037 10.0875C26.7957 10.0375 26.7856 9.98797 26.777 9.93797C26.7496 9.78031 26.7206 9.62328 26.6871 9.46766C26.676 9.41641 26.6634 9.36578 26.6517 9.31484C26.6168 9.16234 26.5801 9.01094 26.5395 8.86078C26.5246 8.80594 26.5084 8.75156 26.4928 8.69687C26.4517 8.55313 26.4085 8.41031 26.3623 8.26875C26.3426 8.20844 26.3218 8.14844 26.3012 8.08844C26.2554 7.95578 26.2078 7.82422 26.1574 7.69375C26.1315 7.62641 26.1051 7.55937 26.0779 7.4925C26.0295 7.37313 25.979 7.255 25.9268 7.13766C25.8934 7.06234 25.8598 6.98703 25.8248 6.91234C25.7759 6.80812 25.7248 6.70531 25.6731 6.60297C25.6304 6.51844 25.5881 6.43391 25.5435 6.35031C25.4973 6.26391 25.4487 6.17906 25.4004 6.09406C25.3462 5.99828 25.2928 5.90234 25.2359 5.80813C25.1988 5.74672 25.1595 5.68719 25.1213 5.62641C24.7637 5.05656 24.3573 4.51547 23.9045 4.00891C23.8767 3.97781 23.8498 3.94578 23.8217 3.915C23.7274 3.81172 23.6298 3.71109 23.5317 3.61094C23.4867 3.565 23.442 3.51844 23.3962 3.47312C23.3054 3.38328 23.2123 3.29547 23.1184 3.20828C23.0606 3.15453 23.0024 3.10109 22.9435 3.04859C22.8979 3.00781 22.8546 2.96516 22.8084 2.925C22.7962 2.91344 22.7835 2.90219 22.7707 2.89109C22.7493 2.87266 22.7276 2.85484 22.7009 2.83344C22.6663 2.80422 22.6312 2.77656 22.5965 2.74766C22.5907 2.74281 22.5848 2.73797 22.5788 2.73328C22.5267 2.69016 22.4748 2.64625 22.4221 2.60453C22.3793 2.57047 22.336 2.53672 22.2913 2.50234C22.2445 2.46609 22.1963 2.43078 22.1488 2.39516C22.1406 2.38891 22.1324 2.38266 22.1242 2.37656C22.0929 2.35328 22.0624 2.32953 22.0309 2.30641C21.9799 2.26906 21.9287 2.23203 21.8751 2.19422C21.809 2.14766 21.7418 2.10203 21.6743 2.05625C21.6696 2.05312 21.6653 2.05 21.6606 2.04688C21.6507 2.04016 21.641 2.03344 21.6312 2.02672C21.5709 1.98625 21.5107 1.94594 21.4484 1.90609C21.3746 1.85875 21.3003 1.8125 21.2282 1.76844C21.2187 1.7625 21.2088 1.75688 21.1993 1.75094C21.184 1.74156 21.1687 1.73234 21.1534 1.72312C21.107 1.69484 21.061 1.66641 21.0135 1.63844C20.9592 1.60672 20.9045 1.57594 20.8493 1.54516L20.7978 1.51609C20.7713 1.50125 20.7437 1.48656 20.7171 1.47172C20.6943 1.45906 20.6715 1.44641 20.6485 1.43406C20.6207 1.41875 20.5942 1.40359 20.5654 1.38844C20.536 1.37281 20.506 1.35766 20.4762 1.34266L20.4346 1.32156C20.3798 1.29328 20.3243 1.26688 20.2692 1.23953C20.2184 1.21438 20.1682 1.18844 20.117 1.16406C19.979 1.09812 19.8401 1.03594 19.7006 0.975469C19.6543 0.955625 19.6081 0.935781 19.5615 0.916406C19.4068 0.851875 19.2515 0.79 19.0949 0.732188C19.084 0.728125 19.0729 0.724531 19.062 0.720469C18.1415 0.383438 17.1885 0.164375 16.2104 0.0640625C16.1979 0.0628125 16.1854 0.0614062 16.1729 0.0601562C15.9853 0.0414062 15.7967 0.026875 15.6073 0.0170312C15.5848 0.0159375 15.5621 0.0151563 15.5395 0.0140625C15.3492 0.005625 15.1584 0 14.9667 0C8.35588 0 2.9776 5.37828 2.9776 11.9889V12.9889V17.2042C2.9776 23.815 8.35588 29.1933 14.9667 29.1933ZM5.32135 11.9889C5.32135 6.67047 9.64822 2.34375 14.9667 2.34375C15.1457 2.34375 15.3235 2.34969 15.5006 2.35922C15.5718 2.36313 15.6423 2.37 15.7132 2.37547C15.8165 2.38328 15.9196 2.39156 16.0223 2.40266C16.1098 2.41234 16.1967 2.42406 16.2835 2.43594C16.3676 2.44734 16.4515 2.45953 16.5351 2.47328C16.6284 2.48859 16.7212 2.50516 16.8135 2.52313C16.8913 2.53828 16.9687 2.555 17.046 2.57203C17.1384 2.59234 17.2306 2.61281 17.322 2.63578C17.4076 2.6575 17.4924 2.68172 17.5774 2.70578C17.6571 2.72812 17.7371 2.74922 17.816 2.77359C17.9776 2.82391 18.1381 2.87781 18.2973 2.93687C18.329 2.94859 18.3598 2.96203 18.3913 2.97406C18.5301 3.02719 18.6682 3.08266 18.8051 3.1425C18.8409 3.15812 18.876 3.17484 18.9117 3.19078C19.0456 3.25125 19.1787 3.31453 19.3107 3.38141C19.3834 3.41813 19.4565 3.45422 19.5281 3.49281C19.5563 3.50844 19.5848 3.52391 19.6128 3.53953C19.7173 3.59734 19.8209 3.65672 19.9232 3.71828C19.9492 3.73422 19.9745 3.74922 20.0013 3.76562C20.1138 3.83469 20.2249 3.90578 20.3343 3.97938C20.3549 3.99328 20.3746 4.00719 20.3951 4.02109C20.4996 4.0925 20.6028 4.16578 20.7042 4.24109C20.7263 4.2575 20.7481 4.27391 20.7699 4.29047C20.8688 4.36516 20.9662 4.44172 21.062 4.52C21.084 4.53813 21.1062 4.55609 21.1282 4.57453C21.2015 4.63547 21.2728 4.69844 21.344 4.76156C21.4084 4.81828 21.472 4.87578 21.5346 4.93422C21.5959 4.99125 21.6567 5.04891 21.7165 5.1075C21.7718 5.16187 21.826 5.21719 21.8799 5.27266C21.942 5.33656 22.004 5.40047 22.0643 5.46594C22.1124 5.51812 22.1588 5.57172 22.2057 5.625C22.2674 5.69516 22.3296 5.765 22.3893 5.83687C22.431 5.88719 22.4707 5.93891 22.5113 5.99C22.5721 6.06641 22.6338 6.14219 22.6924 6.22047C22.7156 6.25156 22.737 6.28375 22.7598 6.315C22.8706 6.46672 22.9763 6.62203 23.0782 6.78031C23.1288 6.85891 23.1803 6.93719 23.2285 7.01719C23.2626 7.07344 23.2942 7.13125 23.3271 7.18828C23.3778 7.27641 23.4285 7.36438 23.4765 7.45406C23.5046 7.50672 23.531 7.56047 23.5584 7.61359C23.6079 7.71063 23.6567 7.80781 23.7028 7.90641C23.7256 7.95531 23.7474 8.00469 23.7695 8.05391C23.8168 8.15953 23.8626 8.26578 23.9062 8.37297C23.9245 8.41797 23.9421 8.46328 23.9598 8.50875C24.0038 8.62219 24.0457 8.73656 24.0854 8.85172C24.0998 8.89344 24.1142 8.93516 24.1279 8.97719C24.1676 9.0975 24.2045 9.21875 24.2393 9.34078C24.2506 9.37984 24.2621 9.41891 24.2728 9.45828C24.3068 9.58344 24.3378 9.70953 24.3668 9.83625C24.3756 9.87453 24.3849 9.91234 24.3932 9.95062C24.4209 10.0787 24.4449 10.2078 24.4674 10.3372C24.4742 10.3756 24.4818 10.4137 24.4881 10.4523C24.5088 10.5814 24.5257 10.7114 24.5413 10.8417C24.5462 10.8817 24.5523 10.9213 24.5567 10.9614C24.5707 11.0928 24.5804 11.2252 24.589 11.3575C24.5915 11.3967 24.5959 11.4355 24.5979 11.4747C24.607 11.6455 24.612 11.8169 24.612 11.9889V12.6209C22.6971 12.0964 21.0321 10.8863 19.9251 9.18047C19.7268 8.875 19.3979 8.67906 19.0349 8.65016C18.6735 8.62203 18.3162 8.76281 18.0721 9.03328C15.8471 11.4987 12.6701 12.9128 9.35541 12.9128C7.96619 12.9128 6.61276 12.673 5.32151 12.1989V11.9889H5.32135Z" fill="url(#paint4_linear)"/>
<path d="M38.8769 24.2801C41.1394 24.2801 43.0451 22.7232 43.5791 20.6245C55.5833 21.161 65.1844 31.0939 65.1844 43.2281C65.1844 55.7051 55.0337 65.8557 42.5568 65.8557C37.6046 65.8557 32.9021 64.2856 28.9577 61.3151C28.4405 60.9259 27.706 61.0296 27.3166 61.5462C26.9273 62.0632 27.0309 62.7979 27.5477 63.1873C31.9016 66.4662 37.0916 68.1993 42.5568 68.1993C56.3262 68.1993 67.5282 56.9973 67.5282 43.2279C67.5282 29.8048 56.8819 18.8234 43.5899 18.2795C43.0724 16.1571 41.1562 14.5767 38.8768 14.5767C36.2016 14.5767 34.0252 16.7532 34.0252 19.4284C34.0252 22.1035 36.2018 24.2801 38.8769 24.2801ZM38.8769 16.9206C40.2599 16.9206 41.3849 18.0456 41.3849 19.4285C41.3849 20.8113 40.2599 21.9363 38.8769 21.9363C37.4941 21.9363 36.3691 20.8113 36.3691 19.4285C36.3691 18.0456 37.4941 16.9206 38.8769 16.9206Z" fill="url(#paint5_linear)"/>
<path d="M68.5582 17.2267C61.6129 10.2815 52.3787 6.45654 42.5567 6.45654C41.9093 6.45654 41.3848 6.98107 41.3848 7.62842C41.3848 8.27576 41.9093 8.80029 42.5567 8.80029C51.7526 8.80029 60.3984 12.3814 66.9009 18.884C73.4035 25.3865 76.9846 34.0322 76.9846 43.2283C76.9846 52.4244 73.4035 61.07 66.9009 67.5725C60.3982 74.0751 51.7526 77.6562 42.5567 77.6562C36.9601 77.6562 31.4046 76.2833 26.4912 73.6859C22.0265 71.3258 18.0854 67.9615 15.0395 63.92C15.7259 63.0829 16.1385 62.0131 16.1385 60.8486C16.1385 58.1734 13.9621 55.9969 11.287 55.9969C8.61183 55.9969 6.43542 58.1734 6.43542 60.8486C6.43542 63.5237 8.61183 65.7001 11.287 65.7001C11.9514 65.7001 12.585 65.5656 13.162 65.3228C16.415 69.6412 20.6253 73.2362 25.3957 75.7581C30.6454 78.5331 36.5796 80 42.5567 80C52.3787 80 61.6129 76.1751 68.5582 69.2298C75.5034 62.2845 79.3284 53.0503 79.3284 43.2283C79.3284 33.4062 75.5034 24.172 68.5582 17.2267ZM8.77917 60.8486C8.77917 59.4656 9.90417 58.3406 11.287 58.3406C12.6698 58.3406 13.7948 59.4656 13.7948 60.8486C13.7948 62.2314 12.6698 63.3564 11.287 63.3564C9.90417 63.3564 8.77917 62.2312 8.77917 60.8486Z" fill="url(#paint6_linear)"/>
<defs>
<linearGradient id="paint0_linear" x1="37.3273" y1="35.0366" x2="37.3273" y2="51.4198" gradientUnits="userSpaceOnUse">
<stop stop-color="#0195FA"/>
<stop offset="1" stop-color="#0168BC"/>
</linearGradient>
<linearGradient id="paint1_linear" x1="49.9735" y1="35.0366" x2="49.9735" y2="51.4198" gradientUnits="userSpaceOnUse">
<stop stop-color="#0195FA"/>
<stop offset="1" stop-color="#0168BC"/>
</linearGradient>
<linearGradient id="paint2_linear" x1="43.7611" y1="48.0879" x2="43.7611" y2="50.6012" gradientUnits="userSpaceOnUse">
<stop stop-color="#0195FA"/>
<stop offset="1" stop-color="#0168BC"/>
</linearGradient>
<linearGradient id="paint3_linear" x1="14.9665" y1="30.9648" x2="14.9665" y2="52.6864" gradientUnits="userSpaceOnUse">
<stop stop-color="#0195FA"/>
<stop offset="1" stop-color="#0168BC"/>
</linearGradient>
<linearGradient id="paint4_linear" x1="14.9668" y1="0" x2="14.9668" y2="29.1933" gradientUnits="userSpaceOnUse">
<stop stop-color="#0195FA"/>
<stop offset="1" stop-color="#0168BC"/>
</linearGradient>
<linearGradient id="paint5_linear" x1="47.3045" y1="14.5767" x2="47.3045" y2="68.1993" gradientUnits="userSpaceOnUse">
<stop stop-color="#0195FA"/>
<stop offset="1" stop-color="#0168BC"/>
</linearGradient>
<linearGradient id="paint6_linear" x1="42.8819" y1="6.45654" x2="42.8819" y2="80" gradientUnits="userSpaceOnUse">
<stop stop-color="#0195FA"/>
<stop offset="1" stop-color="#0168BC"/>
</linearGradient>
</defs>
</svg>
