<?xml version="1.0" encoding="utf-8"?>
<!-- Generator: Adobe Illustrator 19.0.0, SVG Export Plug-In . SVG Version: 6.00 Build 0)  -->
<svg version="1.1" id="Layer_1" xmlns="http://www.w3.org/2000/svg" xmlns:xlink="http://www.w3.org/1999/xlink" x="0px" y="0px"
	 viewBox="0 0 475.7 244.6" style="enable-background:new 0 0 475.7 244.6;" xml:space="preserve">
<style type="text/css">
	.st0{fill:#FFFFFF;}
</style>
<g id="XMLID_1213_">
	<g id="XMLID_2821_">
		<path id="XMLID_4969_" class="st0" d="M51.2,216.5c-1.3,2.7-3.1,4.9-5.5,6.5c-2.3,1.5-5,2.3-8,2.3c-4.2,0.1-7.8-1.4-10.7-4.1
			c-3-2.9-4.5-6.4-4.5-10.5c0-4.1,1.5-7.5,4.4-10.3c3-2.8,6.5-4.2,10.6-4.2c3.1,0,5.8,0.8,8.4,2.4c2.5,1.6,4.3,3.8,5.4,6.6H47
			c-1-1.6-2.3-2.9-4.1-3.9c-1.7-1-3.5-1.5-5.4-1.5c-3.2-0.1-5.9,1-8.1,3.1c-2.2,2-3.3,4.6-3.3,7.7c-0.1,3.1,1.1,5.7,3.2,7.9
			c2.1,2.1,4.7,3.2,7.9,3.2c2,0,3.9-0.4,5.5-1.3c1.6-0.9,3-2.1,4.3-3.9H51.2z"/>
		<path id="XMLID_2859_" class="st0" d="M57.1,187h3.8v37.7h-3.8V187z"/>
		<path id="XMLID_2856_" class="st0" d="M91.5,200.4c2.9,2.9,4.3,6.2,4.3,10.1c0.1,4-1.4,7.4-4.2,10.4c-2.8,3-6.2,4.4-10.2,4.4
			c-4,0-7.4-1.3-10.3-4.2c-2.9-2.9-4.3-6.3-4.3-10.2c-0.1-4.1,1.4-7.5,4.3-10.4c2.9-2.9,6.3-4.3,10.4-4.3
			C85.2,196.2,88.6,197.6,91.5,200.4z M73.6,203.1c-2,2.1-3.1,4.7-3.1,7.8c0,3,1,5.5,3.2,7.6c2.1,2.1,4.7,3.2,7.7,3.2
			c3.1,0.1,5.6-1.1,7.6-3.3c2-2.1,3.1-4.8,3.1-7.9c0-3-1.1-5.5-3.3-7.6c-2.1-2-4.6-3.1-7.4-3.1C78.3,199.8,75.7,200.9,73.6,203.1z"
			/>
		<path id="XMLID_2854_" class="st0" d="M128,224.7h-3.9v-4.4c-0.9,1.7-2.2,3-4,3.8c-1.7,0.8-3.7,1.2-6,1.3c-1.9,0-3.7-0.4-5.4-1.2
			c-1.6-0.8-3.3-2-5-3.9c-0.8-0.8-1.3-1.9-1.6-3.3c-0.3-1.4-0.4-3.2-0.4-5.5v-14.8h4.1v14.8c0,1.3,0.1,2.4,0.3,3.5
			c0.2,0.9,0.5,1.8,1.1,2.6c0.8,1.3,1.8,2.2,3.2,3c1.4,0.7,2.9,1.1,4.5,1.1c3.1,0,5.5-1.1,7.3-3.5c0.7-0.8,1.1-1.8,1.4-3
			c0.3-1.1,0.4-2.3,0.4-3.7v-14.8h4.1V224.7z"/>
		<path id="XMLID_2851_" class="st0" d="M163.5,224.7h-3.6v-5.1c-2.8,3.9-6.5,5.8-11.2,5.8c-2,0-4-0.5-6-1.4
			c-1.8-0.9-3.7-2.4-5.8-4.4c-0.7-0.7-1.4-1.7-2-3.4c-0.7-1.8-1.1-3.7-1.1-5.6c0-4.1,1.4-7.5,4.4-10.3c3-2.8,6.5-4.1,10.6-4.2
			c2.1,0,4.2,0.5,6.2,1.4c1.9,0.9,3.5,2.2,4.6,4.1V187h3.8V224.7z M156.6,202.9c-2.1-2-4.7-3.1-7.8-3.1c-3,0-5.5,1-7.7,3.2
			c-2.1,2.1-3.3,4.6-3.3,7.6c-0.1,3.1,1.1,5.7,3.3,7.8c2.1,2.1,4.7,3.2,7.8,3.3c3.1,0,5.7-1.1,7.8-3.3c2.1-2.1,3.2-4.7,3.2-7.8
			C159.8,207.6,158.7,205,156.6,202.9z"/>
		<path id="XMLID_2848_" class="st0" d="M174.3,223c0,2.5-0.2,4.4-0.6,5.5c-0.4,1.1-1,2.1-1.9,3.2c-1.8,1.9-4.1,2.8-6.9,2.9v-3.7
			c2.4,0,4-0.9,4.9-2.7c0.5-1.2,0.8-3.2,0.8-6v-25.4h3.8V223z M170.5,187h3.8v6.4h-3.8V187z"/>
		<path id="XMLID_2845_" class="st0" d="M183.8,212.1c0,2.5,1.1,4.8,3.3,6.8c2.1,1.9,4.5,2.9,7.2,2.9c2.1,0,4.1-0.5,6-1.6
			c1.8-1.1,3.2-2.6,4-4.5h4c-1,2.8-2.7,5.1-5.3,7c-2.5,1.8-5.3,2.7-8.3,2.7c-4.1,0-7.5-1.4-10.4-4.3c-2.9-2.9-4.3-6.3-4.3-10.4
			c0-4,1.4-7.4,4.2-10.3c2.8-2.9,6.2-4.3,10.3-4.3c2.1,0,4.2,0.5,6.1,1.4c1.9,0.9,3.6,2.2,5.1,4c1.3,1.5,2,3.1,2.5,4.8
			c0.5,1.6,0.7,3.5,0.7,5.7H183.8z M205.3,208.7c-0.5-2.5-1.7-4.6-3.8-6.3c-2-1.7-4.3-2.5-6.9-2.5c-2.6-0.1-5,0.8-7.1,2.5
			c-2,1.6-3.3,3.7-3.7,6.4H205.3z"/>
		<path id="XMLID_2843_" class="st0" d="M217.9,200.2h-5.8v-3.5h5.8V187h3.8v9.8h6.5v3.5h-6.5v24.4h-3.8V200.2z"/>
		<path id="XMLID_2841_" class="st0" d="M248.6,216.4l-0.1,0.2c0,1.4,0.5,2.5,1.5,3.6c1,1,2.2,1.4,3.7,1.5c1.3,0,2.4-0.4,3.5-1.3
			c0.9-0.9,1.4-2,1.4-3.4c0.1-1.5-0.5-2.7-1.6-3.6c-0.8-0.7-2-1.2-3.8-1.7c-1.6-0.5-2.5-0.8-2.7-0.9c-0.9-0.4-1.7-0.9-2.4-1.5
			c-1.5-1.4-2.2-3.1-2.2-5.3c0-2.2,0.8-4.1,2.3-5.6c1.5-1.5,3.4-2.2,5.8-2.2c2.1,0,3.9,0.7,5.4,2.2c1.5,1.5,2.3,3.2,2.3,5.3h-3.8
			c0-1.2-0.4-2.1-1.3-2.8c-0.8-0.7-1.8-1.1-3.1-1.1c-1.1,0-2,0.4-2.8,1.1c-0.7,0.7-1.1,1.6-1.1,2.8c-0.1,1.3,0.5,2.3,1.5,3.2
			c0.6,0.5,1.7,0.9,3.4,1.4c2.5,0.8,4.3,1.6,5.5,2.7c1.5,1.3,2.3,3.1,2.3,5.4c0,2.6-0.8,4.8-2.5,6.5c-1.7,1.6-3.8,2.4-6.5,2.5
			c-2.2,0-4.2-0.8-6-2.5c-1.7-1.7-2.6-3.7-2.6-6l0.1-0.4H248.6z"/>
		<path id="XMLID_2838_" class="st0" d="M291,200.4c2.9,2.9,4.3,6.2,4.3,10.1c0.1,4-1.4,7.4-4.2,10.4c-2.8,3-6.2,4.4-10.2,4.4
			c-4,0-7.4-1.3-10.3-4.2c-2.9-2.9-4.3-6.3-4.3-10.2c-0.1-4.1,1.4-7.5,4.3-10.4c2.9-2.9,6.3-4.3,10.4-4.3
			C284.7,196.2,288.1,197.6,291,200.4z M273,203.1c-2,2.1-3.1,4.7-3.1,7.8c0,3,1,5.5,3.2,7.6c2.1,2.1,4.7,3.2,7.7,3.2
			c3.1,0.1,5.6-1.1,7.6-3.3c2-2.1,3.1-4.8,3.1-7.9c0-3-1.1-5.5-3.3-7.6c-2.1-2-4.6-3.1-7.4-3.1C277.8,199.8,275.2,200.9,273,203.1z"
			/>
		<path id="XMLID_2836_" class="st0" d="M300.9,187h3.8v37.7h-3.8V187z"/>
		<path id="XMLID_2834_" class="st0" d="M338.2,224.7h-3.9v-4.4c-0.9,1.7-2.2,3-4,3.8c-1.7,0.8-3.7,1.2-6,1.3
			c-1.9,0-3.7-0.4-5.4-1.2c-1.6-0.8-3.3-2-5-3.9c-0.8-0.8-1.3-1.9-1.6-3.3c-0.3-1.4-0.4-3.2-0.4-5.5v-14.8h4.1v14.8
			c0,1.3,0.1,2.4,0.3,3.5c0.2,0.9,0.5,1.8,1.1,2.6c0.8,1.3,1.8,2.2,3.2,3c1.4,0.7,2.9,1.1,4.5,1.1c3.1,0,5.5-1.1,7.3-3.5
			c0.7-0.8,1.1-1.8,1.4-3c0.3-1.1,0.4-2.3,0.4-3.7v-14.8h4.1V224.7z"/>
		<path id="XMLID_2832_" class="st0" d="M348.4,200.2h-5.8v-3.5h5.8V187h3.8v9.8h6.5v3.5h-6.5v24.4h-3.8V200.2z"/>
		<path id="XMLID_2829_" class="st0" d="M362.9,187h3.8v6.4h-3.8V187z M362.9,196.8h3.8v27.9h-3.8V196.8z"/>
		<path id="XMLID_2826_" class="st0" d="M397.3,200.4c2.9,2.9,4.3,6.2,4.3,10.1c0,4-1.4,7.4-4.2,10.4c-2.8,3-6.2,4.4-10.2,4.4
			c-4,0-7.4-1.3-10.3-4.2c-2.9-2.9-4.3-6.3-4.3-10.2c0-4.1,1.4-7.5,4.3-10.4c2.9-2.9,6.3-4.3,10.4-4.3
			C391.1,196.2,394.4,197.6,397.3,200.4z M379.4,203.1c-2,2.1-3.1,4.7-3.1,7.8c0,3,1,5.5,3.2,7.6c2.1,2.1,4.7,3.2,7.7,3.2
			c3.1,0.1,5.6-1.1,7.6-3.3c2-2.1,3.1-4.8,3.1-7.9c0-3-1.1-5.5-3.3-7.6c-2.1-2-4.6-3.1-7.4-3.1C384.1,199.8,381.5,200.9,379.4,203.1
			z"/>
		<path id="XMLID_2824_" class="st0" d="M407.3,196.8h3.6v4.1c2.1-3.1,5-4.6,8.7-4.7c1.9,0,3.7,0.4,5.4,1.2c1.7,0.8,3.2,1.9,4.5,3.5
			c1,1.2,1.7,2.5,2,4c0.3,1.4,0.5,3.1,0.5,5.2v14.7h-3.8V210c0-1.8-0.1-3.2-0.4-4.1c-0.3-0.9-0.7-1.7-1.2-2.5
			c-1.7-2.3-4.1-3.5-7.2-3.6c-1.3,0-2.5,0.3-3.8,0.9c-1.2,0.6-2.2,1.4-3,2.4c-0.6,0.9-1,1.8-1.2,3c-0.2,1.1-0.3,2.3-0.3,3.9v14.7
			h-3.8V196.8z"/>
		<path id="XMLID_2822_" class="st0" d="M440,216.4l-0.1,0.2c0,1.4,0.5,2.5,1.5,3.6c1,1,2.2,1.4,3.7,1.5c1.3,0,2.4-0.4,3.5-1.3
			c0.9-0.9,1.4-2,1.4-3.4c0.1-1.5-0.5-2.7-1.6-3.6c-0.8-0.7-2-1.2-3.8-1.7c-1.6-0.5-2.5-0.8-2.7-0.9c-0.9-0.4-1.7-0.9-2.4-1.5
			c-1.5-1.4-2.2-3.1-2.2-5.3c-0.1-2.2,0.8-4.1,2.3-5.6c1.5-1.5,3.4-2.2,5.8-2.2c2.1,0,3.9,0.7,5.4,2.2c1.5,1.5,2.3,3.2,2.3,5.3h-3.8
			c0-1.2-0.4-2.1-1.3-2.8c-0.8-0.7-1.8-1.1-3.1-1.1c-1.1,0-2,0.4-2.7,1.1c-0.7,0.7-1.1,1.6-1.1,2.8c-0.1,1.3,0.5,2.3,1.5,3.2
			c0.6,0.5,1.7,0.9,3.4,1.4c2.5,0.8,4.3,1.6,5.5,2.7c1.5,1.3,2.3,3.1,2.3,5.4c0.1,2.6-0.8,4.8-2.5,6.5c-1.7,1.6-3.8,2.4-6.5,2.5
			c-2.2,0-4.2-0.8-6-2.5c-1.7-1.7-2.6-3.7-2.6-6l0.1-0.4H440z"/>
	</g>
	<g id="XMLID_2782_">
		<g id="XMLID_2819_">
			<path id="XMLID_2815_" class="st0" d="M107.2,98.7c2.7,17.6,12.1,33.1,26.5,43.7c29.7,21.8,71.6,15.4,93.3-14.3l0.7-1
				c1.5-2.1,1.1-5.1-1-6.6l-11.6-8.5c-2.1-1.6-5.1-1.1-6.6,1l-0.7,0.9c-14,19.1-40.9,23.2-60,9.2c-9.2-6.8-15.3-16.8-17-28.1
				c-1.7-11.3,1-22.7,7.8-31.9c6.8-9.2,16.8-15.3,28.1-17c11.3-1.7,22.7,1,31.9,7.8l79,58.4c2.1,1.6,5.1,1.1,6.6-1l8.5-11.6
				c1.6-2.1,1.1-5.1-1-6.6l-79-58.4c-14.4-10.6-32-14.9-49.6-12.2c-17.6,2.7-33.2,12.1-43.7,26.5C108.8,63.5,104.5,81.1,107.2,98.7z
				"/>
		</g>
		<g id="XMLID_2817_">
			<path id="XMLID_2816_" class="st0" d="M370.8,78.2c-2.7-17.6-12.1-33.1-26.5-43.7c-29.7-21.8-71.6-15.3-93.3,14.3l-0.7,0.9
				c-1.5,2.1-1.1,5.1,1,6.6l11.6,8.5c2.1,1.5,5.1,1.1,6.6-1l0.7-0.9c14-19.1,40.9-23.2,60-9.2c9.2,6.8,15.3,16.8,17,28.1
				c1.7,11.3-1,22.7-7.8,31.9c-6.8,9.2-16.8,15.3-28.1,17c-11.3,1.7-22.7-1-31.9-7.8l-79-58.4c-2.1-1.6-5.1-1.1-6.6,1l-8.5,11.6
				c-1.6,2.1-1.1,5.1,1,6.6l79,58.4c14.4,10.5,32,14.9,49.6,12.2c17.6-2.7,33.2-12.1,43.7-26.5C369.2,113.4,373.5,95.8,370.8,78.2z"
				/>
		</g>
	</g>
</g>
</svg>
