<?xml version="1.0" encoding="utf-8"?>
<!-- Generator: Adobe Illustrator 19.0.0, SVG Export Plug-In . SVG Version: 6.00 Build 0)  -->
<svg version="1.1" id="Layer_1" xmlns="http://www.w3.org/2000/svg" xmlns:xlink="http://www.w3.org/1999/xlink" x="0px" y="0px"
	 viewBox="-295 387 20 20" style="enable-background:new -295 387 20 20;" xml:space="preserve">
<style type="text/css">
	.st0{fill:#1F1F1F;}
</style>
<path class="st0" d="M-280.7,393.4l-4.2-1.1c0,0-0.1,0-0.1,0c0,0-0.1,0-0.1,0l-4.2,1.1c-0.2,0.1-0.4,0.3-0.4,0.5l0.5,5.9
	c0,0.1,0.1,0.3,0.2,0.4l3.7,3c0.1,0.1,0.2,0.1,0.3,0.1s0.2,0,0.3-0.1l3.8-3c0.1-0.1,0.2-0.2,0.2-0.4l0.5-5.9
	C-280.3,393.6-280.4,393.4-280.7,393.4z M-281.7,399.5l-3.3,2.6l0,0l0,0l-3.3-2.6l-0.4-5.2l3.7-1l0,0l0,0l3.7,1L-281.7,399.5z"/>
<g>
	<path class="st0" d="M-278.1,400.3h-1.4c-0.3,0-0.5-0.2-0.5-0.5s0.2-0.5,0.5-0.5h1l1.5-3.8h-2.1c-0.3,0-0.5-0.2-0.5-0.5
		s0.2-0.5,0.5-0.5h2.9c0.2,0,0.3,0.1,0.4,0.2c0.1,0.1,0.1,0.3,0.1,0.5l-1.9,4.8C-277.7,400.1-277.8,400.3-278.1,400.3z"/>
</g>
<g>
	<path class="st0" d="M-290.6,400.3h-1.4c-0.2,0-0.4-0.1-0.5-0.3l-1.9-4.8c-0.1-0.2,0-0.3,0.1-0.5c0.1-0.1,0.2-0.2,0.4-0.2h2.9
		c0.3,0,0.5,0.2,0.5,0.5s-0.2,0.5-0.5,0.5h-2.1l1.5,3.8h1c0.3,0,0.5,0.2,0.5,0.5S-290.3,400.3-290.6,400.3z"/>
</g>
<g>
	<path class="st0" d="M-283.6,399.3c-0.1,0-0.1,0-0.2,0l-1.2-0.7l-1.1,0.7c-0.1,0.1-0.3,0.1-0.4,0c-0.1-0.1-0.2-0.2-0.2-0.4l0.2-1.2
		l-1-0.9c-0.1-0.1-0.1-0.3-0.1-0.4c0.1-0.1,0.2-0.2,0.3-0.2h1.2l0.6-1.4c0.1-0.3,0.6-0.3,0.7,0l0.6,1.4h1.1c0.2,0,0.3,0.1,0.4,0.2
		c0.1,0.1,0,0.3-0.1,0.4l-0.9,0.8l0.3,1.3c0,0.1,0,0.3-0.1,0.4C-283.5,399.3-283.6,399.3-283.6,399.3z M-285,397.8
		c0.1,0,0.1,0,0.2,0l0.6,0.4l-0.2-0.7c0-0.1,0-0.3,0.1-0.4l0.4-0.3h-0.4c-0.1,0-0.3-0.1-0.3-0.2l-0.4-0.9l-0.4,0.9
		c-0.1,0.1-0.2,0.2-0.3,0.2h-0.5l0.5,0.4c0.1,0.1,0.1,0.2,0.1,0.3l-0.1,0.6l0.5-0.3C-285.1,397.8-285.1,397.8-285,397.8z"/>
</g>
</svg>
