<svg width="80" height="80" viewBox="0 0 80 80" fill="none" xmlns="http://www.w3.org/2000/svg">
<g clip-path="url(#clip0)">
<path d="M65.6961 56.1291L68.0096 53.8156L66.1851 51.9911L63.8715 54.3046L61.4367 51.8698C63.3928 48.3485 64.5167 44.3046 64.5167 40.0001C64.5167 39.6323 64.478 39.2749 64.4612 38.9111C70.5244 37.4852 74.8393 32.1175 74.8393 25.8065H72.2586C72.2586 30.7898 68.9322 35.0517 64.2096 36.3214C62.4251 24.5459 52.2651 15.484 40.0006 15.484C39.6328 15.484 39.2754 15.5227 38.9115 15.5394C37.4857 9.47622 32.118 5.16138 25.807 5.16138V7.74202C30.7902 7.74202 35.0522 11.0685 36.3219 15.7911C24.5464 17.5756 15.4844 27.7356 15.4844 40.0001C15.4844 40.3678 15.5231 40.7253 15.5399 41.0891C9.4767 42.5149 5.16186 47.8827 5.16186 54.1936H7.7425C7.7425 49.2104 11.069 44.9485 15.7915 43.6788C17.5761 55.4543 27.7361 64.5162 40.0006 64.5162C44.3051 64.5162 48.349 63.3923 51.869 61.4362L54.3038 63.8711L51.9902 66.1846L53.8148 68.0091L56.1283 65.6956L68.4522 78.0194C69.7296 79.2969 71.429 80.0001 73.2354 80.0001C76.9657 80.0001 80.0006 76.9652 80.0006 73.2362C80.0006 71.4298 79.2973 69.7304 78.0199 68.453L65.6961 56.1291ZM40.0006 18.0646C51.007 18.0646 60.118 26.2194 61.6754 36.8001L59.1322 37.2233C57.7799 27.8646 49.7283 20.6452 40.0006 20.6452C39.9348 20.6452 39.8702 20.6543 39.8044 20.6556L39.3786 18.0969C39.5877 18.0904 39.7902 18.0646 40.0006 18.0646ZM40.0006 23.2259C49.2496 23.2259 56.7748 30.7511 56.7748 40.0001C56.7748 49.2491 49.2496 56.7743 40.0006 56.7743C30.7515 56.7743 23.2264 49.2491 23.2264 40.0001C23.2264 30.7511 30.7515 23.2259 40.0006 23.2259ZM18.0651 40.0001C18.0651 28.9936 26.2199 19.8827 36.8006 18.3252L37.2238 20.8685C27.8651 22.2207 20.6457 30.2723 20.6457 40.0001C20.6457 40.0659 20.6548 40.1304 20.6561 40.1962L18.0973 40.622C18.0909 40.413 18.0651 40.2104 18.0651 40.0001ZM40.0006 61.9356C28.9941 61.9356 19.8831 53.7807 18.3257 43.2001L20.869 42.7769C22.2212 52.1356 30.2728 59.3549 40.0006 59.3549C50.6728 59.3549 59.3554 50.6723 59.3554 40.0001C59.3554 39.9343 59.3464 39.8698 59.3451 39.804L61.9038 39.3782C61.9102 39.5872 61.9361 39.7898 61.9361 40.0001C61.9361 52.0956 52.0961 61.9356 40.0006 61.9356ZM54.1038 60.0207C56.398 58.4001 58.4006 56.3975 60.0212 54.1033L62.047 56.1291L56.1296 62.0465L54.1038 60.0207ZM73.2367 77.4194C72.1193 77.4194 71.0677 76.9846 70.278 76.1949L57.9541 63.8711L63.8715 57.9536L76.1954 70.2775C76.9851 71.0672 77.4199 72.1188 77.4199 73.2362C77.4199 75.5433 75.5438 77.4194 73.2367 77.4194Z" fill="url(#paint0_linear)"/>
<path d="M68.3865 23.2257C74.7904 23.2257 79.9994 18.0167 79.9994 11.6128C79.9994 5.20897 74.7904 -6.10352e-05 68.3865 -6.10352e-05C61.9826 -6.10352e-05 56.7736 5.20897 56.7736 11.6128C56.7736 18.0167 61.9826 23.2257 68.3865 23.2257ZM72.2575 19.7612C71.082 20.3212 69.7723 20.6451 68.3865 20.6451C67.0007 20.6451 65.691 20.3212 64.5155 19.7612V18.0645C64.5155 15.9303 66.2523 14.1935 68.3865 14.1935C70.5207 14.1935 72.2575 15.9303 72.2575 18.0645V19.7612ZM65.8059 9.0322C65.8059 7.60897 66.9633 6.45155 68.3865 6.45155C69.8097 6.45155 70.9671 7.60897 70.9671 9.0322C70.9671 10.4554 69.8097 11.6128 68.3865 11.6128C66.9633 11.6128 65.8059 10.4554 65.8059 9.0322ZM68.3865 2.58058C73.3659 2.58058 77.4188 6.63349 77.4188 11.6128C77.4188 14.0735 76.4265 16.3045 74.8252 17.9354C74.7813 15.7664 73.6729 13.8528 71.9917 12.7161C72.9491 11.7793 73.5478 10.4761 73.5478 9.0322C73.5478 6.18575 71.233 3.87091 68.3865 3.87091C65.54 3.87091 63.2252 6.18575 63.2252 9.0322C63.2252 10.4761 63.8239 11.7793 64.7813 12.7161C63.0988 13.8541 61.9904 15.7664 61.9478 17.9354C60.3465 16.3045 59.3542 14.0735 59.3542 11.6128C59.3542 6.63349 63.4071 2.58058 68.3865 2.58058Z" fill="url(#paint1_linear)"/>
<path d="M11.6136 23.2257C18.0175 23.2257 23.2265 18.0167 23.2265 11.6128C23.2265 5.20897 18.0175 -6.10352e-05 11.6136 -6.10352e-05C5.20975 -6.10352e-05 0.000717163 5.20897 0.000717163 11.6128C0.000717163 18.0167 5.20975 23.2257 11.6136 23.2257ZM15.4846 19.7612C14.3091 20.3212 12.9994 20.6451 11.6136 20.6451C10.2278 20.6451 8.91814 20.3212 7.74265 19.7612V18.0645C7.74265 15.9303 9.47943 14.1935 11.6136 14.1935C13.7478 14.1935 15.4846 15.9303 15.4846 18.0645V19.7612ZM9.03298 9.0322C9.03298 7.60897 10.1904 6.45155 11.6136 6.45155C13.0368 6.45155 14.1943 7.60897 14.1943 9.0322C14.1943 10.4554 13.0368 11.6128 11.6136 11.6128C10.1904 11.6128 9.03298 10.4554 9.03298 9.0322ZM11.6136 2.58058C16.593 2.58058 20.6459 6.63349 20.6459 11.6128C20.6459 14.0735 19.6536 16.3045 18.0523 17.9354C18.0085 15.7664 16.9001 13.8528 15.2188 12.7161C16.1762 11.7793 16.7749 10.4761 16.7749 9.0322C16.7749 6.18574 14.4601 3.87091 11.6136 3.87091C8.76717 3.87091 6.45233 6.18574 6.45233 9.0322C6.45233 10.4761 7.05104 11.7793 8.00846 12.7161C6.32717 13.8541 5.21878 15.7664 5.17491 17.9354C3.57362 16.3045 2.58136 14.0735 2.58136 11.6128C2.58136 6.63349 6.63427 2.58058 11.6136 2.58058Z" fill="url(#paint2_linear)"/>
<path d="M11.6129 56.7741C5.20899 56.7741 -4.57764e-05 61.9831 -4.57764e-05 68.387C-4.57764e-05 74.7909 5.20899 79.9999 11.6129 79.9999C18.0167 79.9999 23.2258 74.7909 23.2258 68.387C23.2258 61.9831 18.0167 56.7741 11.6129 56.7741ZM15.4838 76.5354C14.3083 77.0954 12.9987 77.4193 11.6129 77.4193C10.2271 77.4193 8.91737 77.0954 7.74189 76.5354V74.8386C7.74189 72.7044 9.47866 70.9677 11.6129 70.9677C13.7471 70.9677 15.4838 72.7044 15.4838 74.8386V76.5354ZM9.03221 65.8064C9.03221 64.3831 10.1896 63.2257 11.6129 63.2257C13.0361 63.2257 14.1935 64.3831 14.1935 65.8064C14.1935 67.2296 13.0361 68.387 11.6129 68.387C10.1896 68.387 9.03221 67.2296 9.03221 65.8064ZM18.0516 74.7096C18.0077 72.5406 16.8993 70.627 15.218 69.4902C16.1754 68.5535 16.7741 67.2502 16.7741 65.8064C16.7741 62.9599 14.4593 60.6451 11.6129 60.6451C8.76641 60.6451 6.45157 62.9599 6.45157 65.8064C6.45157 67.2502 7.05028 68.5535 8.0077 69.4902C6.32641 70.6283 5.21802 72.5406 5.17415 74.7096C3.57286 73.0786 2.5806 70.8477 2.5806 68.387C2.5806 63.4077 6.6335 59.3548 11.6129 59.3548C16.5922 59.3548 20.6451 63.4077 20.6451 68.387C20.6451 70.8477 19.6529 73.0786 18.0516 74.7096Z" fill="url(#paint3_linear)"/>
<path d="M25.8066 37.4193V43.8709V45.1612V46.4515H54.1937V45.1612V43.8709V32.258H46.4518V43.8709H43.8711V27.0967H36.1292V43.8709H33.5486V37.4193H25.8066ZM49.0324 34.8386H51.6131V43.8709H49.0324V34.8386ZM38.7098 29.6773H41.2905V43.8709H38.7098V29.6773ZM30.9679 43.8709H28.3873V39.9999H30.9679V43.8709Z" fill="url(#paint4_linear)"/>
</g>
<defs>
<linearGradient id="paint0_linear" x1="42.5812" y1="5.16138" x2="42.5812" y2="80.0001" gradientUnits="userSpaceOnUse">
<stop stop-color="#0195FA"/>
<stop offset="1" stop-color="#0168BC"/>
</linearGradient>
<linearGradient id="paint1_linear" x1="68.3865" y1="-6.10352e-05" x2="68.3865" y2="23.2257" gradientUnits="userSpaceOnUse">
<stop stop-color="#0195FA"/>
<stop offset="1" stop-color="#0168BC"/>
</linearGradient>
<linearGradient id="paint2_linear" x1="11.6136" y1="-6.10352e-05" x2="11.6136" y2="23.2257" gradientUnits="userSpaceOnUse">
<stop stop-color="#0195FA"/>
<stop offset="1" stop-color="#0168BC"/>
</linearGradient>
<linearGradient id="paint3_linear" x1="11.6129" y1="56.7741" x2="11.6129" y2="79.9999" gradientUnits="userSpaceOnUse">
<stop stop-color="#0195FA"/>
<stop offset="1" stop-color="#0168BC"/>
</linearGradient>
<linearGradient id="paint4_linear" x1="40.0002" y1="27.0967" x2="40.0002" y2="46.4515" gradientUnits="userSpaceOnUse">
<stop stop-color="#0195FA"/>
<stop offset="1" stop-color="#0168BC"/>
</linearGradient>
<clipPath id="clip0">
<rect width="80" height="80" fill="white"/>
</clipPath>
</defs>
</svg>
