<svg width="80" height="80" viewBox="0 0 80 80" fill="none" xmlns="http://www.w3.org/2000/svg">
<path d="M58.0116 40.6697H65.1613L69.0323 45.831H80L75.1613 39.3794L80 32.9278H69.0323L65.1613 38.0891H58.0116C57.4836 30.5834 52.3973 24.2244 45.1613 22.081V13.573H51.8763L40 0L28.1237 13.573H34.8387V16.1536H37.4194V10.9923H33.8117L40 3.92011L46.1883 10.9923H42.5806V24.0927L43.5742 24.3277C50.1638 25.8877 54.8841 31.4478 55.4297 38.0891H52.839C52.1881 31.5783 46.6797 26.4762 40.0013 26.4762C32.8862 26.4762 27.098 32.2644 27.098 39.3794C27.098 46.4945 32.8862 52.2826 40.0013 52.2826C46.6797 52.2826 52.1894 47.1806 52.839 40.6697H55.4297C54.8841 47.311 50.1638 52.8711 43.5742 54.4311L42.5806 54.6661V69.0568H37.4194V54.6661L36.4258 54.4311C29.4141 52.7715 24.5161 46.582 24.5161 39.3794C24.5161 32.1768 29.4141 25.9873 36.4258 24.3277L37.4194 24.0927V18.7342H34.8387V22.081C27.1913 24.346 21.9355 31.3187 21.9355 39.3794C21.9355 47.4401 27.1913 54.4128 34.8387 56.6772V58.8143C17.294 59.3548 0 62.6865 0 69.0568C0 75.8335 20.1229 79.3794 40 79.3794C59.8771 79.3794 80 75.8335 80 69.0568C80 62.6865 62.706 59.3548 45.1613 58.8155V56.6784C52.3973 54.5344 57.4836 48.1754 58.0116 40.6697ZM70.3226 43.2504L68.3871 40.6697H72.9032L74.8387 43.2504H70.3226ZM70.3226 35.5084H74.8387L72.9032 38.0891H68.3871L70.3226 35.5084ZM40 49.702C34.3082 49.702 29.6774 45.0712 29.6774 39.3794C29.6774 33.6876 34.3082 29.0568 40 29.0568C45.2539 29.0568 49.5949 33.0053 50.2337 38.0891H47.626C47.0092 34.4336 43.8294 31.6375 40 31.6375C35.7302 31.6375 32.2581 35.1096 32.2581 39.3794C32.2581 43.6492 35.7302 47.1213 40 47.1213C43.8281 47.1213 47.0079 44.3252 47.626 40.6697H50.2337C49.5949 45.7535 45.2539 49.702 40 49.702ZM44.9779 40.6697C44.4015 42.8887 42.3986 44.5407 40 44.5407C37.1535 44.5407 34.8387 42.2259 34.8387 39.3794C34.8387 36.5329 37.1535 34.2181 40 34.2181C42.3986 34.2181 44.4015 35.8695 44.9779 38.0891H40V40.6697H44.9779ZM77.4193 69.0568C77.4193 72.2889 63.1842 76.7988 40 76.7988C16.8158 76.7988 2.58065 72.2889 2.58065 69.0568C2.58065 66.2878 14.0669 62.0514 34.8387 61.405V63.8955H21.9355V69.0568H15.4839V71.6375H24.5161V66.4762H34.8387V69.0568H32.2581V71.6375H47.7419V69.0568H45.1613V66.4762H55.4839V71.6375H64.5161V69.0568H58.0645V63.8955H45.1613V61.405C65.9331 62.0514 77.4193 66.2878 77.4193 69.0568Z" fill="url(#paint0_linear)"/>
<defs>
<linearGradient id="paint0_linear" x1="40" y1="0" x2="40" y2="79.3794" gradientUnits="userSpaceOnUse">
<stop stop-color="#0195FA"/>
<stop offset="1" stop-color="#0168BC"/>
</linearGradient>
</defs>
</svg>
