<?xml version="1.0" encoding="utf-8"?>
<!-- Generator: Adobe Illustrator 19.0.0, SVG Export Plug-In . SVG Version: 6.00 Build 0)  -->
<svg version="1.1" id="Layer_1" xmlns="http://www.w3.org/2000/svg" xmlns:xlink="http://www.w3.org/1999/xlink" x="0px" y="0px"
	 viewBox="-295 387 20 20" style="enable-background:new -295 387 20 20;" xml:space="preserve">
<style type="text/css">
	.st0{fill:#FFFFFF;}
</style>
<path class="st0" d="M-275,407h-20v-20h20V407z M-275.6,387.6h-18.8v18.8h18.8V387.6z"/>
<path class="st0" d="M-284.1,399.1h-4.8c-0.5,0-0.9-0.4-0.9-0.9v-4.8c0-0.5,0.4-0.9,0.9-0.9h7.8c0.5,0,0.9,0.4,0.9,0.9v0.6
	c0,0.2-0.1,0.3-0.3,0.3s-0.3-0.1-0.3-0.3v-0.6c0-0.2-0.1-0.3-0.3-0.3h-7.8c-0.2,0-0.3,0.1-0.3,0.3v4.8c0,0.2,0.1,0.3,0.3,0.3h4.8
	c0.2,0,0.3,0.1,0.3,0.3C-283.8,399-283.9,399.1-284.1,399.1z"/>
<path class="st0" d="M-284.1,401.5h-6c-0.5,0-0.9-0.4-0.9-0.9V400c0-0.2,0.1-0.3,0.3-0.3h6.6c0.2,0,0.3,0.1,0.3,0.3
	s-0.1,0.3-0.3,0.3h-6.3v0.3c0,0.2,0.1,0.3,0.3,0.3h6c0.2,0,0.3,0.1,0.3,0.3C-283.8,401.4-283.9,401.5-284.1,401.5z"/>
<path class="st0" d="M-279.9,401.5h-2.4c-0.5,0-0.9-0.4-0.9-0.9v-4.8c0-0.5,0.4-0.9,0.9-0.9h2.4c0.5,0,0.9,0.4,0.9,0.9v4.8
	C-279,401.1-279.4,401.5-279.9,401.5z M-282.3,395.5c-0.2,0-0.3,0.1-0.3,0.3v4.8c0,0.2,0.1,0.3,0.3,0.3h2.4c0.2,0,0.3-0.1,0.3-0.3
	v-4.8c0-0.2-0.1-0.3-0.3-0.3H-282.3z"/>
<path class="st0" d="M-281.1,400.3c-0.1,0-0.2,0-0.2-0.1c-0.1-0.1-0.1-0.1-0.1-0.2s0-0.2,0.1-0.2c0.1-0.1,0.1-0.1,0.2-0.1
	s0.2,0,0.2,0.1c0.1,0.1,0.1,0.1,0.1,0.2s0,0.2-0.1,0.2C-280.9,400.3-281,400.3-281.1,400.3z"/>
</svg>
