<?xml version="1.0" encoding="utf-8"?>
<!-- Generator: Adobe Illustrator 19.0.0, SVG Export Plug-In . SVG Version: 6.00 Build 0)  -->
<svg version="1.1" id="Layer_1" xmlns="http://www.w3.org/2000/svg" xmlns:xlink="http://www.w3.org/1999/xlink" x="0px" y="0px"
	 viewBox="-295 387 20 20" style="enable-background:new -295 387 20 20;" xml:space="preserve">
<style type="text/css">
	.st0{fill:#FFFFFF;}
</style>
<path class="st0" d="M-275,407h-20v-20h20V407z M-275.6,387.6h-18.8v18.8h18.8V387.6z"/>
<path d="M-281.1,400.3c-0.1,0-0.2,0-0.2-0.1c-0.1-0.1-0.1-0.1-0.1-0.2s0-0.2,0.1-0.2c0.1-0.1,0.1-0.1,0.2-0.1c0.1,0,0.2,0,0.2,0.1
	c0.1,0.1,0.1,0.1,0.1,0.2s0,0.2-0.1,0.2C-280.9,400.3-281,400.3-281.1,400.3z"/>
<path class="st0" d="M-279.9,393.7h-2.7v-0.9c0-0.5-0.4-0.9-0.9-0.9h-3c-0.5,0-0.9,0.4-0.9,0.9v0.9h-2.7c-0.5,0-0.9,0.4-0.9,0.9v6.6
	c0,0.5,0.4,0.9,0.9,0.9h10.2c0.5,0,0.9-0.4,0.9-0.9v-6.6C-279,394.1-279.4,393.7-279.9,393.7z M-286.8,392.8c0-0.2,0.1-0.3,0.3-0.3
	h3c0.2,0,0.3,0.1,0.3,0.3v0.9h-3.6V392.8z M-290.1,394.3h10.2c0.2,0,0.3,0.1,0.3,0.3v4.5h-1.2v-0.3c0-0.2-0.1-0.3-0.3-0.3h-1.2
	c-0.2,0-0.3,0.1-0.3,0.3v0.3h-4.8v-0.3c0-0.2-0.1-0.3-0.3-0.3h-1.2c-0.2,0-0.3,0.1-0.3,0.3v0.3h-1.2v-4.5
	C-290.4,394.4-290.3,394.3-290.1,394.3z M-281.4,399.1v0.6h-0.6v-0.6H-281.4z M-288,399.1v0.6h-0.6v-0.6H-288z M-279.9,401.5h-10.2
	c-0.2,0-0.3-0.1-0.3-0.3v-1.5h1.2v0.3c0,0.2,0.1,0.3,0.3,0.3h1.2c0.2,0,0.3-0.1,0.3-0.3v-0.3h4.8v0.3c0,0.2,0.1,0.3,0.3,0.3h1.2
	c0.2,0,0.3-0.1,0.3-0.3v-0.3h1.2v1.5C-279.6,401.4-279.7,401.5-279.9,401.5z"/>
</svg>
