<?xml version="1.0" encoding="utf-8"?>
<!-- Generator: Adobe Illustrator 19.0.0, SVG Export Plug-In . SVG Version: 6.00 Build 0)  -->
<svg version="1.1" id="Layer_1" xmlns="http://www.w3.org/2000/svg" xmlns:xlink="http://www.w3.org/1999/xlink" x="0px" y="0px"
	 viewBox="-295 387 20 20" style="enable-background:new -295 387 20 20;" xml:space="preserve">
<style type="text/css">
	.st0{fill:#FFFFFF;}
</style>
<g>
	<path class="st0" d="M-288.2,399.7c-0.1,0-0.2,0-0.2-0.1l-2.5-2.5c-0.1-0.1-0.1-0.3,0-0.4l2.5-2.5c0.1-0.1,0.3-0.1,0.4,0
		s0.1,0.3,0,0.4l-2.3,2.3l2.3,2.3c0.1,0.1,0.1,0.3,0,0.4C-288,399.7-288.1,399.7-288.2,399.7L-288.2,399.7z"/>
	<path class="st0" d="M-281.8,399.7c-0.1,0-0.2,0-0.2-0.1c-0.1-0.1-0.1-0.3,0-0.4l2.3-2.3l-2.3-2.3c-0.1-0.1-0.1-0.3,0-0.4
		s0.3-0.1,0.4,0l2.5,2.5c0.1,0.1,0.1,0.3,0,0.4l-2.5,2.5C-281.7,399.7-281.8,399.7-281.8,399.7L-281.8,399.7z"/>
	<path class="st0" d="M-286.6,399.7c-0.1,0-0.1,0-0.2,0c-0.1-0.1-0.2-0.3-0.1-0.4l3.2-5.1c0.1-0.1,0.3-0.2,0.4-0.1s0.2,0.3,0.1,0.4
		l-3.2,5.1C-286.4,399.6-286.5,399.7-286.6,399.7z"/>
</g>
<path class="st0" d="M-275,407h-20v-20h20V407z M-275.6,387.6h-18.8v18.8h18.8V387.6z"/>
</svg>
