<svg width="21" height="16" viewBox="0 0 21 16" fill="none" xmlns="http://www.w3.org/2000/svg">
<path d="M0.240975 8.76928C0.0803251 8.61543 0 8.38466 0 8.23082C0 8.07697 0.0803251 7.8462 0.240975 7.69235L1.36553 6.61543C1.68683 6.30774 2.16878 6.30774 2.49008 6.61543L2.5704 6.69235L6.98828 11.2308C7.14893 11.3847 7.38991 11.3847 7.55056 11.2308L18.3141 0.538508H18.3944C18.7157 0.230816 19.1977 0.230816 19.519 0.538508L20.6435 1.61543C20.9648 1.92312 20.9648 2.38466 20.6435 2.69235L7.79153 15.4616C7.63088 15.6154 7.47023 15.6924 7.22926 15.6924C6.98828 15.6924 6.82763 15.6154 6.66698 15.4616L0.401625 9.00005L0.240975 8.76928Z" fill="#0056AA"/>
</svg>
