<svg width="80" height="80" viewBox="0 0 80 80" fill="none" xmlns="http://www.w3.org/2000/svg">
<path d="M56.4834 37.5152C55.9582 37.8933 55.839 38.6257 56.2173 39.151C56.4464 39.4689 56.8051 39.6382 57.1692 39.6382C57.4065 39.6382 57.6459 39.5664 57.8531 39.4171C59.8809 37.9569 61.0915 35.5949 61.0915 33.0989C61.0915 28.8082 57.6007 25.3174 53.31 25.3174C52.5582 25.3174 51.815 25.4246 51.1001 25.636C50.4793 25.8196 50.1251 26.4714 50.3087 27.0921C50.4923 27.7127 51.145 28.0671 51.7648 27.8835C52.2635 27.736 52.7836 27.6611 53.31 27.6611C56.3082 27.6611 58.7478 30.1005 58.7478 33.0989C58.7476 34.8432 57.9012 36.4941 56.4834 37.5152Z" fill="url(#paint0_linear)"/>
<path d="M37.1224 36.6867C35.6024 36.2795 34.0144 36.4882 32.6516 37.2753C29.8381 38.8996 28.8706 42.5101 30.4949 45.3237C31.2817 46.6867 32.5524 47.6615 34.0724 48.0689C34.58 48.205 35.0952 48.2721 35.6069 48.2721C36.6278 48.2721 37.6353 48.0045 38.5431 47.4803C39.9061 46.6934 40.881 45.4229 41.2883 43.9028C41.6956 42.3826 41.4867 40.7948 40.6997 39.432C39.913 38.069 38.6425 37.094 37.1224 36.6867ZM39.0247 43.2962C38.7794 44.2117 38.1922 44.9768 37.3714 45.4507C36.5506 45.9245 35.5944 46.0506 34.6792 45.8051C33.7638 45.5598 32.9986 44.9728 32.5247 44.152C31.5466 42.4576 32.1292 40.2834 33.8236 39.3051C34.3703 38.9895 34.977 38.8282 35.5917 38.8282C35.9 38.8282 36.2103 38.8687 36.516 38.9506C37.4313 39.1959 38.1964 39.7831 38.6703 40.6039C39.1441 41.4245 39.2699 42.3807 39.0247 43.2962Z" fill="url(#paint1_linear)"/>
<path d="M54.4163 32.1841C54.4162 32.1772 54.416 32.1722 54.4159 32.1672C54.4159 32.1645 54.4157 32.1602 54.4157 32.1578C54.4101 31.95 54.3484 31.7519 54.2432 31.5797C54.1482 31.4239 54.0177 31.2894 53.8574 31.1909C53.5488 31.0016 46.2871 26.5938 39.1129 26.5938C39.044 26.5938 38.9737 26.5941 38.9048 26.595C38.8543 26.5956 38.8044 26.5997 38.7551 26.6067C36.3844 26.6578 34.278 27.1961 32.503 28.2211C30.9007 29.1461 29.0273 30.477 27.0002 32.1173C22.0633 30.7045 16.7333 31.35 12.2771 33.9234C11.3366 34.4658 10.4235 35.1066 9.56287 35.828C9.12678 36.1934 9.01631 36.8194 9.30068 37.3122L13.8305 45.1569C13.1738 45.9466 12.5566 46.7195 11.989 47.4656C11.703 47.8414 11.6705 48.3522 11.9068 48.7613L18.2241 59.7033C18.4352 60.0689 18.824 60.2892 19.2387 60.2892C19.2879 60.2892 19.3376 60.2861 19.3872 60.2799C20.3315 60.1594 21.3087 60.0116 22.3076 59.8402L26.8369 67.6855C27.0513 68.0567 27.4432 68.2716 27.8521 68.2716C27.9862 68.2716 28.1223 68.2485 28.2544 68.2C29.3046 67.8158 30.3152 67.3456 31.2598 66.8017C35.718 64.2261 38.9434 59.9303 40.1877 54.9475C42.5862 54.0266 44.6952 53.0689 46.3105 52.1364C54.6398 47.3275 54.4377 33.0797 54.4163 32.1841ZM49.8485 44.3539L41.0121 29.0489C42.9644 29.27 44.8926 29.7955 46.6005 30.4006C46.6155 30.4059 46.6305 30.4114 46.6455 30.4167C46.7473 30.4528 46.8479 30.4894 46.9479 30.5261C46.9862 30.5402 47.0244 30.5542 47.0624 30.5684C47.1388 30.5967 47.2146 30.6253 47.2899 30.6539C47.3343 30.6708 47.379 30.6875 47.423 30.7044C47.5009 30.7342 47.5777 30.7642 47.6543 30.7942C47.7457 30.83 47.8362 30.8659 47.9257 30.9019C47.9604 30.9158 47.9954 30.9297 48.0298 30.9438C48.1038 30.9738 48.1771 31.0038 48.2499 31.0338C48.2715 31.0427 48.2929 31.0516 48.3143 31.0603C50.0165 31.7661 51.3602 32.4719 52.0718 32.8673C52.0652 33.2914 52.0459 33.9064 51.9952 34.6558C51.994 34.6748 51.9927 34.6936 51.9913 34.7128C51.9874 34.7702 51.9832 34.8286 51.9788 34.8874C51.9762 34.9239 51.9734 34.9609 51.9704 34.998C51.9665 35.0488 51.9626 35.0997 51.9584 35.1516C51.9512 35.2411 51.9437 35.3317 51.9354 35.4242C51.934 35.4402 51.9324 35.4566 51.931 35.4725C51.923 35.5622 51.9146 35.6531 51.9057 35.7455C51.9038 35.7649 51.9018 35.7845 51.8999 35.8041C51.8898 35.9078 51.8791 36.0128 51.8677 36.1197C51.8677 36.1199 51.8677 36.1202 51.8677 36.1203C51.6159 38.4853 51.0612 41.5734 49.8485 44.3539ZM30.0887 64.7716C29.5373 65.0892 28.9587 65.3786 28.3601 65.6366L24.7501 59.3835C28.9949 58.5258 33.4721 57.3042 37.4421 55.9428C36.1216 59.6408 33.5215 62.7885 30.0887 64.7716ZM38.8271 52.9653C38.7912 52.977 38.7559 52.9903 38.7213 53.0055C33.959 54.7861 28.1015 56.4064 22.7732 57.3781C22.7272 57.3836 22.6813 57.3922 22.6358 57.4033C21.6912 57.5739 20.7626 57.725 19.8615 57.8517L14.3293 48.2695C15.9371 46.2133 17.8997 43.9714 20.0435 41.7436C20.4922 41.2772 20.478 40.5355 20.0116 40.0866C19.5455 39.6378 18.8037 39.652 18.3547 40.1184C17.3412 41.1717 16.3671 42.2289 15.448 43.2706L11.8368 37.0166C12.3599 36.6263 12.8994 36.2705 13.449 35.9534C16.8808 33.9714 20.9041 33.2928 24.7657 33.9977C23.7701 34.8664 22.7499 35.7956 21.7163 36.7777C21.2471 37.2236 21.2282 37.9653 21.674 38.4344C22.1199 38.9036 22.8616 38.9224 23.3307 38.4767C24.9288 36.9581 26.4879 35.5739 27.9641 34.3555C27.9918 34.3347 28.0182 34.3127 28.044 34.2895C30.1369 32.567 32.0594 31.1838 33.6751 30.2509C35.0738 29.4433 36.6393 29.0578 38.2548 28.9603L48.5479 46.7886C47.6554 48.137 46.5384 49.2988 45.1388 50.1067C43.4957 51.0552 41.3127 52.0314 38.8271 52.9653Z" fill="url(#paint2_linear)"/>
<path d="M12.4419 55.0079C11.0537 54.3031 9.50076 53.9881 7.95279 54.0959C7.30701 54.1409 6.82029 54.7009 6.86529 55.3464C6.91013 55.992 7.47091 56.4775 8.11576 56.4339C8.97622 56.3739 9.83841 56.4937 10.6481 56.7824C10.3223 58.5709 9.23544 60.1307 7.63857 61.0528C6.04169 61.9746 4.14732 62.1357 2.43591 61.5242C2.69372 60.1242 3.4256 58.8382 4.50997 57.9128C5.00216 57.4926 5.0606 56.7529 4.6406 56.2606C4.2206 55.7684 3.48091 55.7098 2.98841 56.1299C1.21622 57.6425 0.127471 59.8514 0.00168995 62.1903C-0.0231538 62.6535 0.227628 63.0881 0.641378 63.2981C1.87075 63.9223 3.20232 64.2329 4.53107 64.2329C6.0095 64.2329 7.48451 63.8482 8.8106 63.0826C11.3283 61.629 12.925 59.0245 13.0817 56.1159C13.1064 55.6524 12.8556 55.2181 12.4419 55.0079Z" fill="url(#paint3_linear)"/>
<path d="M78.8283 31.9272H75.4766C74.8855 20.6184 65.7911 11.524 54.4822 10.9328V7.58106C54.4822 6.93387 53.9577 6.40918 53.3103 6.40918C52.663 6.40918 52.1384 6.93387 52.1384 7.58106V10.9361C48.2937 11.1373 44.5823 12.3231 41.3406 14.4028C37.8655 16.6322 35.0842 19.7729 33.2975 23.4858C33.0169 24.0689 33.2622 24.7692 33.8455 25.0498C34.4286 25.3303 35.1289 25.0853 35.4095 24.502C37.0078 21.1804 39.4964 18.3704 42.6061 16.3756C45.4697 14.5387 48.7437 13.4815 52.1386 13.2829V16.5667C52.1386 17.2139 52.6631 17.7386 53.3105 17.7386C53.9578 17.7386 54.4823 17.2139 54.4823 16.5667V13.2814C64.4981 13.8673 72.5424 21.9115 73.1283 31.9273H69.8428C69.1955 31.9273 68.6709 32.452 68.6709 33.0992C68.6709 33.7464 69.1955 34.2711 69.8428 34.2711H73.1281C72.5422 44.2869 64.498 52.3309 54.4822 52.917V49.6317C54.4822 48.9845 53.9577 48.4598 53.3103 48.4598C52.663 48.4598 52.1384 48.9845 52.1384 49.6317V52.917C51.2245 52.8637 50.3159 52.7495 49.4255 52.573C48.7898 52.4473 48.1739 52.8597 48.0481 53.4945C47.9222 54.1294 48.3348 54.7461 48.9695 54.872C50.0097 55.0783 51.0712 55.2092 52.1384 55.265V58.6173C52.1384 59.2645 52.663 59.7892 53.3103 59.7892C53.9577 59.7892 54.4822 59.2645 54.4822 58.6173V55.2656C65.7909 54.6745 74.8853 45.5801 75.4766 34.2714H78.8283C79.4756 34.2714 80.0002 33.7467 80.0002 33.0995C80.0002 32.4523 79.4756 31.9272 78.8283 31.9272Z" fill="url(#paint4_linear)"/>
<defs>
<linearGradient id="paint0_linear" x1="55.6759" y1="25.3174" x2="55.6759" y2="39.6382" gradientUnits="userSpaceOnUse">
<stop stop-color="#018FF1"/>
<stop offset="1" stop-color="#016BC0"/>
</linearGradient>
<linearGradient id="paint1_linear" x1="35.5992" y1="36.4834" x2="35.5992" y2="48.2721" gradientUnits="userSpaceOnUse">
<stop stop-color="#018FF1"/>
<stop offset="1" stop-color="#016BC0"/>
</linearGradient>
<linearGradient id="paint2_linear" x1="31.7821" y1="26.5937" x2="31.7821" y2="68.2716" gradientUnits="userSpaceOnUse">
<stop stop-color="#018FF1"/>
<stop offset="1" stop-color="#016BC0"/>
</linearGradient>
<linearGradient id="paint3_linear" x1="6.54168" y1="54.0752" x2="6.54168" y2="64.2329" gradientUnits="userSpaceOnUse">
<stop stop-color="#018FF1"/>
<stop offset="1" stop-color="#016BC0"/>
</linearGradient>
<linearGradient id="paint4_linear" x1="56.5908" y1="6.40918" x2="56.5908" y2="59.7892" gradientUnits="userSpaceOnUse">
<stop stop-color="#018FF1"/>
<stop offset="1" stop-color="#016BC0"/>
</linearGradient>
</defs>
</svg>
